<svg width="106" height="25" viewBox="0 0 106 25" fill="none" xmlns="http://www.w3.org/2000/svg">
<path d="M1.40625 12.4688C1.40625 9.69792 2.13542 7.3125 3.59375 5.3125C5.28125 3.02083 7.5625 1.875 10.4375 1.875C12.25 1.875 14.3438 2.61458 16.7188 4.09375L15.375 6.59375C14.0208 5.80208 13.3333 5.38542 13.3125 5.34375C12.5417 4.98958 11.75 4.80208 10.9375 4.78125C9.22917 4.78125 7.88542 5.75 6.90625 7.6875C6.11458 9.22917 5.71875 10.9375 5.71875 12.8125C5.71875 14.8333 6.23958 16.5417 7.28125 17.9375C8.26042 19.25 9.44792 19.9167 10.8438 19.9375C11.5938 19.9375 12.3021 19.8021 12.9688 19.5312C13.4896 19.3438 14.3125 18.9271 15.4375 18.2812L16.9375 20.7812C15.5208 21.6979 14.4167 22.3229 13.625 22.6562C12.6042 23.0521 11.4792 23.25 10.25 23.25C7.35417 23.25 5.10417 22.125 3.5 19.875C2.10417 17.875 1.40625 15.4062 1.40625 12.4688ZM29.1562 12.5625C29.1562 10.5625 28.5625 9.5625 27.375 9.5625C26.4375 9.5625 25.5417 10.0625 24.6875 11.0625C24 11.875 23.6562 12.4479 23.6562 12.7812V23H20.25V0.71875H23.6562V10C24.8438 7.75 26.1458 6.63542 27.5625 6.65625C28.7917 6.65625 29.9271 7.14583 30.9688 8.125C32.0521 9.20833 32.5938 10.5521 32.5938 12.1562V23H29.1562V12.5625ZM35.8438 14.9375C35.8438 12.2083 36.7083 10.0729 38.4375 8.53125C39.875 7.26042 41.5417 6.625 43.4375 6.625C45.3125 6.625 46.9375 7.26042 48.3125 8.53125C49.9792 10.0521 50.8125 12.1875 50.8125 14.9375C50.8125 16.8125 50.3333 18.5312 49.375 20.0938C48.0208 22.2604 46.0312 23.3438 43.4062 23.3438C40.5312 23.3438 38.4375 22.25 37.125 20.0625C36.2708 18.6042 35.8438 16.8958 35.8438 14.9375ZM39.5625 15.125C39.5625 16.6667 39.8646 17.9688 40.4688 19.0312C41.1562 20.2396 42.0938 20.8438 43.2812 20.8438C44.4896 20.8438 45.4479 20.2292 46.1562 19C46.8021 17.9167 47.1146 16.5729 47.0938 14.9688C47.0938 13.4062 46.8125 12.0833 46.25 11C45.5833 9.77083 44.6875 9.15625 43.5625 9.15625C42.2708 9.15625 41.25 9.78125 40.5 11.0312C39.875 12.1354 39.5625 13.5 39.5625 15.125ZM54.9688 18.0625V9.875H52.75V7.25H54.9688V3.90625H58.5938V7.25H61.7812V9.90625L58.5938 9.875V18.4375C58.5938 19.8125 58.9896 20.4896 59.7812 20.4688C60.4271 20.4688 60.8542 20.4271 61.0625 20.3438C61.0833 20.3438 61.4479 20.1458 62.1562 19.75L62.9062 21.9375C61.8229 22.5417 61.0833 22.9062 60.6875 23.0312C60.1458 23.1771 59.3125 23.25 58.1875 23.25C56.0417 23.25 54.9688 21.5208 54.9688 18.0625ZM74.4375 23C74.375 22.4167 74.2708 21.6562 74.125 20.7188C72.6458 22.6146 71.3229 23.5625 70.1562 23.5625C68.8438 23.5625 67.7188 23.0417 66.7812 22C65.8021 20.875 65.3125 19.4375 65.3125 17.6875V7.15625H68.7188V17.5938C68.7188 19.5938 69.2708 20.5938 70.375 20.5938C71.1458 20.5938 71.9792 20.1042 72.875 19.125C73.7083 18.2292 74.125 17.5 74.125 16.9375V7.15625H77.5625V23H74.4375Z" fill="#E03D9A"/>
<path d="M91.7812 18.25H85.1562L83.6875 23.375L80.375 22.9375L87.0312 2.0625H90.2812L97 22.7812L93.2812 23.375L91.7812 18.25ZM86.0312 15.2812H90.9062L88.5312 6.96875L86.0312 15.2812ZM99.8125 2.5H103.594V23H99.8125V2.5Z" fill="#45C654"/>
</svg>
