<svg width="56" height="55" viewBox="0 0 56 55" fill="none" xmlns="http://www.w3.org/2000/svg">
<g clip-path="url(#clip0_47_4)">
<rect width="56" height="55" rx="27.5" fill="#545454"/>
<path d="M28.3153 32.3757C30.7894 32.3757 32.7866 30.4354 32.7866 28.0318V19.3439C32.7866 16.9403 30.7894 15 28.3153 15C25.8411 15 23.8439 16.9403 23.8439 19.3439V28.0318C23.8439 30.4354 25.8411 32.3757 28.3153 32.3757ZM37.1238 28.0318C36.3935 28.0318 35.7824 28.5531 35.6632 29.2626C35.0521 32.6653 31.9967 35.2717 28.3153 35.2717C24.6338 35.2717 21.5784 32.6653 20.9673 29.2626C20.9148 28.922 20.7387 28.6108 20.4709 28.3852C20.2031 28.1595 19.8612 28.0342 19.5067 28.0318C18.5975 28.0318 17.8821 28.8137 18.0162 29.6825C18.5816 33.0454 20.8531 35.8442 23.9387 37.2257C25.5142 37.9312 26.8248 39.3373 26.8248 41.0636V41.0636C26.8248 41.86 27.4955 42.5116 28.3153 42.5116C29.135 42.5116 29.8057 41.86 29.8057 41.0636V41.0636C29.8057 39.3372 31.1156 37.9302 32.6915 37.2252C33.769 36.7431 34.7606 36.0828 35.6192 35.267C37.2032 33.7621 38.2523 31.8059 38.6143 29.6825C38.7633 28.8137 38.033 28.0318 37.1238 28.0318Z" fill="white"/>
</g>
<defs>
<clipPath id="clip0_47_4">
<rect width="56" height="55" fill="white"/>
</clipPath>
</defs>
</svg>
