<svg width="15" height="16" viewBox="0 0 15 16" fill="none" xmlns="http://www.w3.org/2000/svg">
<g clip-path="url(#clip0_42_4)">
<g opacity="0.8">
<path d="M13.7921 8.00003H12.2921C12.0932 8.00003 11.9024 8.07905 11.7618 8.2197C11.6211 8.36036 11.5421 8.55112 11.5421 8.75003C11.5421 8.94895 11.6211 9.13971 11.7618 9.28036C11.9024 9.42102 12.0932 9.50003 12.2921 9.50003V11H11.4026C11.4917 10.7599 11.5386 10.5062 11.5413 10.25C11.5413 9.75475 11.3779 9.27331 11.0764 8.88038C10.7748 8.48745 10.3521 8.20499 9.87369 8.0768C9.39528 7.94861 8.88795 7.98186 8.43036 8.17138C7.97277 8.36091 7.5905 8.69612 7.34284 9.12503C7.29282 9.21036 7.26017 9.30474 7.24677 9.40274C7.23337 9.50074 7.23949 9.60042 7.26477 9.69604C7.29005 9.79167 7.33399 9.88135 7.39408 9.95992C7.45416 10.0385 7.52919 10.1044 7.61485 10.1539C7.7005 10.2033 7.7951 10.2353 7.89318 10.2481C7.99127 10.2608 8.09091 10.2541 8.18636 10.2281C8.28181 10.2022 8.3712 10.1577 8.44937 10.0971C8.52754 10.0365 8.59295 9.96102 8.64184 9.87503C8.70767 9.76102 8.80234 9.66635 8.91635 9.60052C9.03036 9.53469 9.15969 9.50004 9.29134 9.50003C9.49025 9.50003 9.68102 9.57905 9.82167 9.7197C9.96232 9.86036 10.0413 10.0511 10.0413 10.25C10.0413 10.4489 9.96232 10.6397 9.82167 10.7804C9.68102 10.921 9.49025 11 9.29134 11C9.09243 11 8.90166 11.0791 8.76101 11.2197C8.62036 11.3604 8.54134 11.5511 8.54134 11.75C8.54134 11.9489 8.62036 12.1397 8.76101 12.2804C8.90166 12.421 9.09243 12.5 9.29134 12.5C9.49025 12.5 9.68102 12.5791 9.82167 12.7197C9.96232 12.8604 10.0413 13.0511 10.0413 13.25C10.0413 13.4489 9.96232 13.6397 9.82167 13.7804C9.68102 13.921 9.49025 14 9.29134 14C9.15969 14 9.03036 13.9654 8.91635 13.8995C8.80234 13.8337 8.70767 13.739 8.64184 13.625C8.59295 13.5391 8.52754 13.4636 8.44937 13.403C8.3712 13.3424 8.28181 13.2978 8.18636 13.2719C8.09091 13.246 7.99127 13.2392 7.89318 13.252C7.7951 13.2647 7.7005 13.2968 7.61485 13.3462C7.52919 13.3957 7.45416 13.4616 7.39408 13.5401C7.33399 13.6187 7.29005 13.7084 7.26477 13.804C7.23949 13.8996 7.23337 13.9993 7.24677 14.0973C7.26017 14.1953 7.29282 14.2897 7.34284 14.375C7.5905 14.804 7.97277 15.1392 8.43036 15.3287C8.88795 15.5182 9.39528 15.5515 9.87369 15.4233C10.3521 15.2951 10.7748 15.0126 11.0764 14.6197C11.3779 14.2268 11.5413 13.7453 11.5413 13.25C11.5386 12.9939 11.4917 12.7402 11.4026 12.5H12.2913V14.75C12.2913 14.9489 12.3704 15.1397 12.511 15.2804C12.6517 15.421 12.8424 15.5 13.0413 15.5C13.2403 15.5 13.431 15.421 13.5717 15.2804C13.7123 15.1397 13.7913 14.9489 13.7913 14.75V9.50003C13.9903 9.50003 14.181 9.42102 14.3217 9.28036C14.4623 9.13971 14.5413 8.94895 14.5413 8.75003C14.5413 8.55112 14.4623 8.36036 14.3217 8.2197C14.181 8.07905 13.991 8.00003 13.7921 8.00003ZM4.81384 7.43228C4.8372 7.52843 4.87935 7.619 4.93786 7.69879C4.99638 7.77857 5.0701 7.84599 5.15479 7.89716C5.23947 7.94832 5.33344 7.98223 5.43129 7.99692C5.52914 8.01161 5.62892 8.00679 5.7249 7.98275C5.82087 7.9587 5.91114 7.91591 5.99051 7.85682C6.06987 7.79774 6.13676 7.72354 6.18732 7.63849C6.23788 7.55344 6.27112 7.45923 6.28511 7.36128C6.2991 7.26333 6.29357 7.16359 6.26884 7.06778L4.95109 1.79528C4.85891 1.42492 4.64548 1.09604 4.34477 0.861008C4.04407 0.625973 3.67338 0.498291 3.29172 0.498291C2.91005 0.498291 2.53936 0.625973 2.23866 0.861008C1.93795 1.09604 1.72452 1.42492 1.63234 1.79528L0.313841 7.06778C0.289112 7.16359 0.283584 7.26333 0.297575 7.36128C0.311566 7.45923 0.344799 7.55344 0.39536 7.63849C0.44592 7.72354 0.51281 7.79774 0.592174 7.85682C0.671538 7.91591 0.761808 7.9587 0.857784 7.98275C0.953761 8.00679 1.05355 8.01161 1.15139 7.99692C1.24924 7.98223 1.34321 7.94832 1.42789 7.89716C1.51258 7.84599 1.5863 7.77857 1.64482 7.69879C1.70333 7.619 1.74548 7.52843 1.76884 7.43228L2.18884 5.75003H4.39384L4.81384 7.43228ZM2.56459 4.25003L3.08734 2.15978C3.10311 2.11824 3.13114 2.08248 3.16771 2.05724C3.20428 2.03201 3.24766 2.01849 3.29209 2.01849C3.33652 2.01849 3.3799 2.03201 3.41648 2.05724C3.45305 2.08248 3.48107 2.11824 3.49684 2.15978L4.01959 4.25003H2.56459ZM8.54209 4.25003H9.29209C9.49094 4.25023 9.68159 4.32931 9.8222 4.46992C9.96281 4.61053 10.0419 4.80118 10.0421 5.00003V5.75003C10.0421 5.94895 10.1211 6.13971 10.2618 6.28036C10.4024 6.42102 10.5932 6.50003 10.7921 6.50003C10.991 6.50003 11.1818 6.42102 11.3224 6.28036C11.4631 6.13971 11.5421 5.94895 11.5421 5.75003V5.00003C11.5415 4.40348 11.3043 3.83153 10.8824 3.4097C10.4606 2.98787 9.88864 2.75063 9.29209 2.75003H8.54209C8.34318 2.75003 8.15241 2.82905 8.01176 2.9697C7.87111 3.11036 7.79209 3.30112 7.79209 3.50003C7.79209 3.69895 7.87111 3.88971 8.01176 4.03036C8.15241 4.17102 8.34318 4.25003 8.54209 4.25003ZM5.54209 11H4.79209C4.59324 10.9998 4.40259 10.9208 4.26198 10.7801C4.12137 10.6395 4.04229 10.4489 4.04209 10.25V9.50003C4.04209 9.30112 3.96307 9.11036 3.82242 8.9697C3.68177 8.82905 3.491 8.75003 3.29209 8.75003C3.09318 8.75003 2.90241 8.82905 2.76176 8.9697C2.62111 9.11036 2.54209 9.30112 2.54209 9.50003V10.25C2.54269 10.8466 2.77993 11.4185 3.20176 11.8404C3.62359 12.2622 4.19554 12.4994 4.79209 12.5H5.54209C5.741 12.5 5.93177 12.421 6.07242 12.2804C6.21307 12.1397 6.29209 11.9489 6.29209 11.75C6.29209 11.5511 6.21307 11.3604 6.07242 11.2197C5.93177 11.0791 5.741 11 5.54209 11Z" fill="black"/>
</g>
</g>
<defs>
<clipPath id="clip0_42_4">
<rect width="15" height="16" fill="white"/>
</clipPath>
</defs>
</svg>
