<svg width="2568" height="1620" viewBox="0 0 2568 1620" fill="none" xmlns="http://www.w3.org/2000/svg">
<path d="M166.627 1612.79C87.121 1516.64 34.974 1392.92 12.415 1271.08C-32.629 1027.78 53.948 763.979 220.709 582.864C359.455 432.176 563.979 379.107 762.451 373.203C848.216 370.652 933.927 376.293 1019.22 384.882C1074.2 390.418 1130.72 400.893 1186.13 399.106C1238.58 397.414 1271.82 355.55 1300.92 316.812C1347.97 254.194 1394.1 192.479 1455.93 143.301C1623.85 9.74081 1882.32 -48.4952 2081.3 47.6028C2173.79 92.2688 2245.21 170.388 2280.94 266.742C2326.44 389.446 2314.26 525.646 2280.74 649.64C2256.26 740.531 2237.74 838.103 2269.75 929.738C2303.04 1025.05 2386.36 1083.54 2446.84 1160.05C2553.33 1294.74 2524.3 1465.89 2472.97 1617.84L166.627 1612.79Z" fill="#EBF3FA"/>
<path d="M525.645 1160.41C525.645 1160.41 660.379 1230.42 645.804 1254.68C631.228 1278.95 501.296 1165.85 501.296 1165.85C501.296 1165.85 363.208 1233.78 333.759 1279.85C333.759 1279.85 501.489 1302.11 481.389 1322.04C461.289 1341.97 285.676 1326.91 285.676 1326.91C285.676 1326.91 177.187 1422.53 229.394 1492.5C281.601 1562.47 337.503 1559.47 354.65 1546.15C371.797 1532.82 453.855 1425.39 465.499 1438.99C477.143 1452.59 442.893 1541.75 399.038 1572.05C399.038 1572.05 542.824 1613.46 582.811 1551.11C622.798 1488.77 600.976 1442.64 626.387 1404.57C651.799 1366.49 682.054 1347.83 677.635 1373.37C673.216 1398.91 619.037 1454.58 620.939 1502.93C622.84 1551.28 619.611 1586.68 672.921 1541.49C726.231 1496.29 795.179 1394.19 768.916 1342.35C767.771 1340.09 766.678 1337.93 765.631 1335.87C768.137 1339.72 768.916 1342.35 768.916 1342.35C782.509 1336.96 821.842 1343.75 851.164 1350.04C855.928 1351.4 862.751 1352.99 872.25 1354.85C876.417 1355.85 879.809 1356.69 882.167 1357.29C944.572 1375.58 1018.72 1450 1018.72 1450L1030.84 1440.92C968.164 1350.55 865.148 1341.98 865.148 1341.98C788.528 1328.73 742.652 1290.5 742.652 1290.5C742.652 1290.5 765.915 1141.41 649.264 1127.98C649.264 1127.98 570.584 1128.73 525.645 1160.41Z" fill="#DFEBFD"/>
<path d="M697.769 663.255C697.769 663.255 719.515 779.627 697.612 782.335C675.709 785.043 682.729 650.916 682.729 650.916C682.729 650.916 574.667 598.762 532.231 602.812C532.231 602.812 599.149 716.505 577.253 713.739C555.357 710.973 480.228 595.9 480.228 595.9C480.228 595.9 369.388 575.223 351.507 640.899C333.627 706.575 362.327 739.462 378.747 743.59C395.166 747.717 500.56 746.488 497.805 760.172C495.049 773.856 423.847 795.662 384.169 783.291C384.169 783.291 427.826 891.479 485.32 886.08C542.814 880.682 560.655 845.118 596.245 842.427C631.836 839.737 657.829 849.352 640.023 858.91C622.217 868.468 562.001 861.947 533.225 886.345C504.45 910.743 481.161 925.769 534.527 936.788C587.893 947.809 683.714 941.092 702.93 900.055C703.768 898.266 704.567 896.56 705.333 894.923C704.171 898.314 702.93 900.055 702.93 900.055C712.77 905.813 727.501 933.226 737.722 954.257C739.176 957.835 741.481 962.788 744.906 969.513C746.293 972.553 747.403 975.04 748.17 976.777C766.924 1023.88 756.849 1105.17 756.849 1105.17L768.249 1108.25C793.627 1026.34 749.39 958.973 749.39 958.973C720.717 905.554 722.147 859.019 722.147 859.019C722.147 859.019 824.878 801.667 777.075 723.586C777.076 723.584 738.815 675.628 697.769 663.255Z" fill="#DFEBFD"/>
<path d="M2021.13 366.439C1992.8 261.835 1816.28 294.524 1816.28 294.524C1816.28 294.524 1696.42 477.58 1661.55 481.939C1626.68 486.298 1733.47 305.421 1733.47 305.421C1665.91 298.883 1493.75 381.694 1493.75 381.694C1493.75 381.694 1504.65 595.26 1469.78 590.902C1434.91 586.543 1469.78 401.308 1469.78 401.308C1404.4 420.921 1343.38 497.195 1343.38 497.195C1267.11 621.412 1430.55 712.94 1430.55 712.94C1430.55 712.94 1432.73 787.034 1386.97 872.024L1386.96 872.026C1386.96 872.026 1376.64 887.718 1366.14 914.391H1383.96C1385.42 909.611 1387.02 904.992 1388.8 900.556C1388.8 900.521 1388.81 900.498 1388.83 900.476C1388.86 900.411 1388.89 900.348 1388.91 900.284C1390.13 897.53 1391.89 893.611 1394.07 888.837C1394.08 888.831 1394.08 888.825 1394.08 888.819C1394.08 888.807 1394.09 888.807 1394.09 888.796C1399.54 878.137 1403.22 870.262 1405.54 864.576C1405.55 864.558 1405.56 864.541 1405.56 864.523C1421.88 831.061 1445.38 787.462 1461.06 778.317C1461.06 778.317 1459.09 775.542 1457.25 770.142C1458.46 772.749 1459.73 775.467 1461.06 778.317C1491.57 843.694 1644.12 854.59 1729.11 837.156C1814.1 819.722 1777.05 795.75 1731.29 756.844C1685.52 717.938 1589.64 728.194 1561.31 712.939C1532.98 697.684 1574.38 682.43 1631.04 686.788C1687.7 691.146 1716.03 747.807 1807.56 756.524C1899.09 765.241 1968.82 593.081 1968.82 593.081C1905.63 612.694 1792.31 577.827 1787.95 556.034C1783.59 534.242 1951.39 536.421 1977.54 529.883C2003.69 523.345 2049.46 471.043 2021.13 366.439Z" fill="#DFEBFD"/>
<path d="M2258.62 783.652H2011.73C1992.05 783.652 1975.95 799.754 1975.95 819.434V927.747C1975.95 945.823 1990.74 960.613 2008.82 960.613H2015.16L2003.26 1010.85L2077.94 960.613H2260.75C2280.41 960.613 2296.5 944.525 2296.5 924.861V821.535C2296.5 800.7 2279.45 783.652 2258.62 783.652Z" fill="#D2E2F9"/>
<path d="M2265.24 862.272H2007.82C2004.31 862.272 2001.44 859.403 2001.44 855.897C2001.44 852.391 2004.31 849.522 2007.82 849.522H2265.24C2268.75 849.522 2271.62 852.391 2271.62 855.897C2271.62 859.403 2268.75 862.272 2265.24 862.272Z" fill="#B4CFFC"/>
<path d="M2265.24 890.808H2007.82C2004.31 890.808 2001.44 887.939 2001.44 884.433C2001.44 880.926 2004.31 878.058 2007.82 878.058H2265.24C2268.75 878.058 2271.62 880.926 2271.62 884.433C2271.62 887.938 2268.75 890.808 2265.24 890.808Z" fill="#B4CFFC"/>
<path d="M2265.24 919.343H2007.82C2004.31 919.343 2001.44 916.474 2001.44 912.968C2001.44 909.461 2004.31 906.593 2007.82 906.593H2265.24C2268.75 906.593 2271.62 909.461 2271.62 912.968C2271.62 916.473 2268.75 919.343 2265.24 919.343Z" fill="#B4CFFC"/>
<path d="M2124.99 817.952H2015.71C2011.54 817.952 2008.12 814.537 2008.12 810.363C2008.12 806.189 2011.54 802.774 2015.71 802.774H2124.99C2129.17 802.774 2132.58 806.189 2132.58 810.363C2132.58 814.537 2129.17 817.952 2124.99 817.952Z" fill="#B4CFFC"/>
<path d="M2218.91 817.952H2153.15C2149.85 817.952 2147.15 815.253 2147.15 811.954V808.772C2147.15 805.473 2149.85 802.774 2153.15 802.774H2218.91C2222.21 802.774 2224.91 805.473 2224.91 808.772V811.954C2224.91 815.252 2222.21 817.952 2218.91 817.952Z" fill="#B4CFFC"/>
<path d="M1757.92 202.202L1615.59 222.507L1710.04 158.125L1714.85 178.764L1749.46 185.034L1757.92 202.202Z" fill="#9EC3F6"/>
<path d="M1615.59 222.508L1734.03 161.438L1850.12 155.599L1615.59 222.508Z" fill="white"/>
<path d="M1710.04 158.126L1615.59 222.508L1688.71 121.888L1710.04 158.126Z" fill="white"/>
<path d="M1524.28 275.807V1540.51C1524.28 1571.69 1499.01 1596.95 1467.83 1596.95H759.825C728.647 1596.95 703.375 1571.69 703.375 1540.51V275.807C703.375 244.629 728.647 219.357 759.825 219.357H1467.83C1499.01 219.357 1524.28 244.629 1524.28 275.807Z" fill="#C0D8FB"/>
<path d="M977.282 1437.73H1320.44C1331.2 1437.73 1339.92 1429.01 1339.92 1418.25V1312.7C1339.92 1301.94 1331.2 1293.22 1320.44 1293.22H977.282C966.524 1293.22 957.802 1301.94 957.802 1312.7V1418.25C957.802 1429.01 966.524 1437.73 977.282 1437.73Z" fill="white"/>
<path d="M888.577 1229.59H1234.01C1244.14 1229.59 1252.36 1221.38 1252.36 1211.25V1119.8C1252.36 1109.67 1244.14 1101.46 1234.01 1101.46H888.577C878.446 1101.46 870.234 1109.67 870.234 1119.8V1211.25C870.234 1221.38 878.446 1229.59 888.577 1229.59Z" fill="#F99746"/>
<path d="M1509.9 219.357H715.392V748.981H1509.9V219.357Z" fill="#F0F6FF"/>
<path d="M1429.75 645.814C1430.01 647.947 1429.26 650.17 1427.54 651.714C1424.75 654.224 1420.45 653.993 1417.94 651.197C1415.38 648.388 1407.02 641.063 1399.21 641.072C1395.52 641.075 1392.21 642.751 1389.1 646.192C1377.12 659.442 1394.15 678.988 1394.33 679.184C1396.82 681.997 1396.56 686.297 1393.74 688.788C1390.93 691.279 1386.63 691.017 1384.14 688.203C1375.35 678.274 1362.96 654.809 1379.01 637.065C1384.7 630.771 1391.7 627.45 1399.27 627.463C1405.95 627.475 1412.86 629.984 1419.81 634.92C1424.64 638.352 1427.73 641.731 1428.06 642.105C1429.03 643.182 1429.59 644.48 1429.75 645.814Z" fill="#2C3A64"/>
<path d="M1386.18 642.808C1386.18 643.985 1385.76 645.167 1384.91 646.11C1383.08 648.142 1379.95 648.306 1377.92 646.478L1362.09 632.232C1360.06 630.405 1359.9 627.276 1361.72 625.244C1363.55 623.212 1366.68 623.048 1368.71 624.876L1384.54 639.121C1385.63 640.101 1386.18 641.452 1386.18 642.808Z" fill="#2C3A64"/>
<path d="M1370.61 638.539L1369.26 639.434C1367.71 640.472 1366.11 641.338 1364.45 642.049C1364.43 642.049 1364.4 642.064 1364.39 642.064C1353.5 646.682 1340.66 644.337 1332.02 635.726C1314.16 617.963 1290.53 605.628 1261.44 598.95C1260.31 598.695 1259.21 598.453 1258.1 598.225C1247.1 595.895 1236.92 594.743 1228.53 594.218C1215.55 593.394 1205.07 583.305 1203.9 570.359L1203.82 569.464L1203.4 564.974C1202.35 553.705 1211.39 544.071 1222.7 544.383C1233.76 544.696 1248.36 545.832 1264.66 549.016C1275.58 551.133 1287.24 554.16 1299.12 558.466C1325.2 567.901 1352.28 583.405 1374.58 608.77C1382.52 617.82 1380.63 631.832 1370.61 638.539Z" fill="#97BDFF"/>
<path d="M1364.39 642.063C1353.51 646.681 1340.66 644.336 1332.02 635.725C1314.16 617.962 1290.53 605.627 1261.44 598.949C1260.32 598.694 1259.21 598.452 1258.1 598.224C1260.66 574.166 1263.32 549.739 1263.32 549.739L1264.67 549.014C1275.58 551.131 1287.25 554.158 1299.13 558.464C1299.13 558.464 1293.64 582.664 1313.53 594.387C1333.43 606.111 1349.77 647.065 1364.39 642.063Z" fill="#4C88F2"/>
<path d="M1056.74 532.231C1046.58 523.118 1050.25 507.765 1050.41 507.113L1060.11 509.864L1055.26 508.489L1060.12 509.836C1060.09 509.93 1057.94 519.314 1063.19 524.028L1056.74 532.231Z" fill="#F99746"/>
<path d="M1193.22 532.231C1203.38 523.118 1199.7 507.765 1199.54 507.113L1189.84 509.864L1194.69 508.489L1189.84 509.836C1189.86 509.93 1192.02 519.314 1186.76 524.028L1193.22 532.231Z" fill="#F99746"/>
<path d="M968.695 540.038V748.981H1228.26V540.038C1228.26 530.656 1220.59 522.985 1211.22 522.985H985.747C982.65 522.985 979.75 523.821 977.241 525.285C974 527.154 971.439 530.054 969.989 533.531C969.152 535.543 968.695 537.738 968.695 540.038Z" fill="#ED7D2B"/>
<path d="M1028.41 540.038V748.981H1287.98V540.038C1287.98 530.656 1280.31 522.985 1270.93 522.985H1045.47C1036.08 522.985 1028.41 530.656 1028.41 540.038Z" fill="#F99746"/>
<path d="M1180.9 512.561H1098.48V522.982H1180.9V512.561Z" fill="#97BDFF"/>
<path d="M1113.49 512.561H1065.83V522.982H1113.49V512.561Z" fill="#4C88F2"/>
<path d="M1264.36 549.134L1252.31 564.062C1250.25 566.614 1246.37 566.614 1244.31 564.062L1239.49 558.09L1231.79 548.55C1230.2 546.571 1231.61 543.623 1234.14 543.623H1261.73C1264.57 543.623 1266.15 546.921 1264.36 549.134Z" fill="#97BDFF"/>
<path d="M1264.36 549.134L1252.31 564.062C1250.25 566.614 1246.37 566.614 1244.31 564.062L1239.49 558.09C1250.03 555.538 1254.07 548.064 1255.57 543.624H1261.73C1264.57 543.623 1266.15 546.921 1264.36 549.134Z" fill="#4C88F2"/>
<path d="M1013.6 582.029C1013.6 582.029 1013.61 582.016 1013.61 582.002L1015.28 577.119L1015.61 576.152C1020.46 562.027 1014.22 546.539 1000.99 539.565C991.591 534.623 980.26 527.87 968.723 519.15C941.369 498.484 922.369 474.455 911.996 447.445C906.202 432.353 890.651 423.371 874.706 426.072L872.851 426.392C866.024 427.561 860.463 431.589 857.132 436.992C853.792 442.377 852.688 449.122 854.727 455.74C879.202 534.934 947.77 577.236 983.702 594.543C995.419 600.181 1009.41 594.338 1013.6 582.029Z" fill="#97BDFF"/>
<path d="M1013.61 582.002L1015.27 577.119L1015.61 576.152C1020.46 562.027 1014.21 546.539 1000.99 539.565C991.59 534.623 980.259 527.87 968.722 519.15C941.368 498.484 922.368 474.455 911.995 447.445C906.201 432.353 890.65 423.371 874.705 426.072L872.85 426.392C866.023 427.561 860.462 431.589 857.131 436.992C872.284 433.58 889.802 434.326 897.136 452.222C911.254 486.696 952.903 524.181 986.494 544.423C1019.33 564.193 1013.87 581.251 1013.61 582.002Z" fill="#4C88F2"/>
<path d="M878.22 357.328C876.005 356.238 873.311 356.212 870.987 357.495C867.208 359.581 865.836 364.336 867.923 368.115C870.007 371.943 874.799 383.784 871.841 392.257C870.445 396.258 867.381 399.212 862.473 401.289C843.578 409.288 828.796 383.434 828.649 383.173C826.536 379.409 821.773 378.071 818.008 380.183C814.243 382.295 812.905 387.061 815.019 390.823C822.476 404.107 843.263 426.396 868.567 415.684C877.544 411.883 883.79 405.534 886.628 397.325C889.136 390.073 889.022 381.628 886.288 372.225C884.388 365.686 881.885 361.065 881.607 360.56C880.804 359.106 879.606 358.01 878.22 357.328Z" fill="#2C3A64"/>
<path d="M865.043 405.738C863.765 405.295 862.325 405.304 860.981 405.869C858.086 407.087 856.728 410.42 857.945 413.313L867.429 435.861C868.645 438.753 871.978 440.113 874.872 438.897C877.767 437.679 879.125 434.346 877.908 431.453L868.424 408.906C867.772 407.357 866.515 406.248 865.043 405.738Z" fill="#2C3A64"/>
<path d="M1089.67 381.113C1089.67 374.139 1084.01 368.485 1077.04 368.485C1070.06 368.485 1064.41 374.139 1064.41 381.113C1064.41 388.088 1070.06 393.742 1077.04 393.742C1084.01 393.741 1089.67 388.087 1089.67 381.113Z" fill="#2C3A64"/>
<path d="M1077.04 376.258C1078.04 376.258 1078.85 375.442 1078.85 374.444V323.334C1078.85 322.336 1078.04 321.52 1077.04 321.52C1076.04 321.52 1075.22 322.336 1075.22 323.334V374.444C1075.22 375.442 1076.04 376.258 1077.04 376.258Z" fill="#2C3A64"/>
<path d="M1236.54 381.113C1236.54 374.139 1230.88 368.485 1223.91 368.485C1216.93 368.485 1211.28 374.139 1211.28 381.113C1211.28 388.088 1216.93 393.742 1223.91 393.742C1230.88 393.741 1236.54 388.087 1236.54 381.113Z" fill="#2C3A64"/>
<path d="M1206.93 512.561H1007.14C993.505 512.561 982.348 501.404 982.348 487.767V402.966C982.348 389.329 993.505 378.172 1007.14 378.172H1206.93C1220.57 378.172 1231.72 389.329 1231.72 402.966V487.767C1231.72 501.404 1220.57 512.561 1206.93 512.561Z" fill="#ED7D2B"/>
<path d="M1259.59 512.561H1056.79C1043.98 512.561 1033.5 502.08 1033.5 489.27V401.463C1033.5 388.653 1043.98 378.172 1056.79 378.172H1259.59C1272.4 378.172 1282.88 388.653 1282.88 401.463V489.27C1282.88 502.08 1272.4 512.561 1259.59 512.561Z" fill="#F99746"/>
<path d="M1204.05 465.147H1102.02C1102.02 465.147 1112.42 486.731 1158.19 486.741C1195.76 486.75 1204.05 465.147 1204.05 465.147Z" fill="white"/>
<path d="M1047.28 451.588H1262.22V404.481H1047.28V451.588Z" fill="#4C88F2"/>
<path d="M1220.55 429.079H1225.45V424.175H1220.55V429.079Z" fill="white"/>
<path d="M1226.76 429.079H1231.66V424.175H1226.76V429.079Z" fill="white"/>
<path d="M1226.76 435.488H1231.66V430.584H1226.76V435.488Z" fill="white"/>
<path d="M1233.18 429.079H1238.08V424.175H1233.18V429.079Z" fill="white"/>
<path d="M1214.32 429.079H1219.22V424.175H1214.32V429.079Z" fill="white"/>
<path d="M1214.32 435.488H1219.22V430.584H1214.32V435.488Z" fill="white"/>
<path d="M1208.08 429.079H1212.99V424.175H1208.08V429.079Z" fill="white"/>
<path d="M1220.55 422.737H1225.45V417.833H1220.55V422.737Z" fill="white"/>
<path d="M1220.55 416.851H1225.45V411.947H1220.55V416.851Z" fill="white"/>
<path d="M1214.32 422.737H1219.22V417.833H1214.32V422.737Z" fill="white"/>
<path d="M1226.76 422.737H1231.66V417.833H1226.76V422.737Z" fill="white"/>
<path d="M1220.55 435.488H1225.45V430.584H1220.55V435.488Z" fill="white"/>
<path d="M1220.55 441.944H1225.45V437.04H1220.55V441.944Z" fill="white"/>
<path d="M1089.5 429.079H1094.41V424.175H1089.5V429.079Z" fill="white"/>
<path d="M1095.71 429.079H1100.61V424.175H1095.71V429.079Z" fill="white"/>
<path d="M1095.71 435.488H1100.61V430.584H1095.71V435.488Z" fill="white"/>
<path d="M1102.13 429.079H1107.04V424.175H1102.13V429.079Z" fill="white"/>
<path d="M1083.27 429.079H1088.17V424.175H1083.27V429.079Z" fill="white"/>
<path d="M1083.27 435.488H1088.17V430.584H1083.27V435.488Z" fill="white"/>
<path d="M1077.04 429.079H1081.94V424.175H1077.04V429.079Z" fill="white"/>
<path d="M1089.5 422.737H1094.41V417.833H1089.5V422.737Z" fill="white"/>
<path d="M1089.5 416.851H1094.41V411.947H1089.5V416.851Z" fill="white"/>
<path d="M1083.27 422.737H1088.17V417.833H1083.27V422.737Z" fill="white"/>
<path d="M1095.71 422.737H1100.61V417.833H1095.71V422.737Z" fill="white"/>
<path d="M1089.5 435.488H1094.41V430.584H1089.5V435.488Z" fill="white"/>
<path d="M1089.5 441.944H1094.41V437.04H1089.5V441.944Z" fill="white"/>
<path d="M1223.91 376.258C1224.91 376.258 1225.72 375.442 1225.72 374.444V323.334C1225.72 322.336 1224.91 321.52 1223.91 321.52C1222.91 321.52 1222.09 322.336 1222.09 323.334V374.444C1222.09 375.442 1222.91 376.258 1223.91 376.258Z" fill="#2C3A64"/>
<path d="M1089.58 538.468C1089.58 536.527 1088.01 534.952 1086.07 534.952C1084.13 534.952 1082.55 536.526 1082.55 538.468C1082.55 540.41 1084.13 541.983 1086.07 541.983C1088.01 541.983 1089.58 540.409 1089.58 538.468Z" fill="white"/>
<path d="M1074.52 538.468C1074.52 536.527 1072.94 534.952 1071 534.952C1069.06 534.952 1067.49 536.526 1067.49 538.468C1067.49 540.41 1069.06 541.983 1071 541.983C1072.94 541.983 1074.52 540.409 1074.52 538.468Z" fill="white"/>
<path d="M1059.6 538.468C1059.6 536.527 1058.03 534.952 1056.09 534.952C1054.15 534.952 1052.57 536.526 1052.57 538.468C1052.57 540.41 1054.14 541.983 1056.09 541.983C1058.03 541.983 1059.6 540.409 1059.6 538.468Z" fill="white"/>
<path d="M1213.99 288.191H1013.66C984.008 288.191 959.97 264.152 959.97 234.5H1267.69C1267.69 264.153 1243.65 288.191 1213.99 288.191Z" fill="#2B478B"/>
<path d="M1469.28 1612.09H758.374C720.123 1612.09 689.003 1579.31 689.003 1539.03V277.289C689.003 236.999 720.123 204.22 758.374 204.22H1469.28C1507.53 204.22 1538.65 236.999 1538.65 277.289V1539.02C1538.65 1579.31 1507.53 1612.09 1469.28 1612.09ZM758.374 234.5C735.974 234.5 717.75 253.695 717.75 277.29V1539.02C717.75 1562.62 735.974 1581.81 758.374 1581.81H1469.28C1491.68 1581.81 1509.9 1562.62 1509.9 1539.02V277.289C1509.9 253.695 1491.68 234.499 1469.28 234.499H758.374V234.5Z" fill="#2B478B"/>
<path d="M1465.53 1596.48H740.033C719.294 1596.48 702.482 1579.67 702.482 1558.93V1508.07H1525.17V1536.84C1525.17 1569.78 1498.47 1596.48 1465.53 1596.48Z" fill="#2B478B"/>
<path d="M1591.74 910.789C1622.75 904.166 1655.08 913.544 1678.03 935.424C1688.15 945.073 1699.26 957.131 1709.46 971.379C1734.75 1006.69 1686.33 1041.64 1692.77 1053.6C1699.2 1065.57 1714.12 1075.01 1707.6 1099.99C1701.07 1124.97 1658.01 1157.38 1643.97 1158.82C1501.7 1173.43 1439.95 1095 1487.51 1052.72C1535.07 1010.43 1515.66 949.096 1554.28 925.267C1566.2 917.908 1579.31 913.444 1591.74 910.789Z" fill="#233862"/>
<path d="M1664.1 1129.5C1664.1 1129.5 1798.09 1187.88 1822.41 1186.82C1846.73 1185.75 1996.6 1141.17 1996.6 1141.17L1992.78 1166.95C1992.78 1166.95 1877.13 1233.47 1836.69 1237.24C1796.88 1240.96 1660.76 1201.51 1647.62 1193.19C1634.48 1184.86 1625.91 1137.93 1664.1 1129.5Z" fill="#ED985F"/>
<path d="M1680.38 1193.26C1668.62 1201.42 1653.86 1208.15 1635.34 1212.43C1565.91 1228.47 1539.3 1169.79 1529.3 1129.5C1538.77 1124.08 1547.68 1122.89 1552.83 1122.28C1557.85 1121.68 1563.12 1121.29 1567.49 1121.07C1575.29 1115.1 1586.91 1090.66 1589.48 1052.71L1592.74 1053.59L1647.47 1068.57C1647.47 1068.57 1644.96 1085.96 1643.73 1102.4C1642.78 1115.27 1642.63 1127.57 1645.07 1130.57C1649.34 1131.5 1651.9 1132.11 1651.9 1132.11C1651.9 1132.11 1651.9 1132.12 1651.93 1132.16C1652.66 1133.36 1668.54 1159.47 1680.38 1193.26Z" fill="#FFB27D"/>
<path d="M1647.47 1068.58C1647.47 1068.58 1644.95 1085.96 1643.74 1102.41C1612.73 1099.31 1598.35 1069.79 1592.75 1053.6L1647.47 1068.58Z" fill="#ED985F"/>
<path d="M1656.73 1084.91C1656.73 1084.91 1583.14 1080.85 1586.37 1035.06C1589.61 989.273 1582.29 957.912 1629.41 958.569C1676.53 959.225 1684.41 977.34 1687.05 992.886C1689.69 1008.43 1675.95 1084.78 1656.73 1084.91Z" fill="#FFB27D"/>
<path d="M1686.69 967.273C1676.32 952.687 1667.51 955.093 1662.41 958.888C1623.82 933.92 1595.59 964.717 1595.59 964.717C1588.32 997.214 1563.28 1014.33 1563.28 1014.33C1563.28 1014.33 1576.32 1024.76 1607.53 1017.84C1647.47 1008.99 1661.18 974.362 1663.05 969.042C1667.24 973.393 1672.67 976.162 1676.82 985.6C1681.76 996.813 1684.87 1003.32 1684.95 1021.73C1684.95 1021.73 1702.25 989.148 1686.69 967.273Z" fill="#233862"/>
<path d="M1508.34 1342.87C1501.7 1308.9 1480.03 1173.18 1501.7 1129.5C1509.48 1113.81 1540.01 1112.4 1573.51 1113.77C1583.94 1120.5 1623.66 1145.93 1639.98 1142.76C1640.15 1142.73 1640.47 1142.65 1640.89 1142.55C1648.58 1140.62 1651.48 1135.23 1645.07 1130.57C1645.05 1130.56 1661.66 1128.97 1682.27 1132.85C1693.9 1135.04 1725.3 1151.29 1725.3 1151.29C1725.3 1151.29 1709.49 1179.84 1686.18 1189.7C1690.14 1225.16 1684.25 1240.8 1647.46 1322.7C1616.38 1391.92 1651.66 1454.25 1651.66 1454.25C1651.66 1454.25 1468.68 1601.36 1467.66 1526.46C1466.9 1470.07 1516.84 1386.29 1508.34 1342.87Z" fill="white"/>
<path d="M1660.73 1614.22C1670.68 1613.09 1679.64 1607.65 1685.2 1599.32C1686.08 1598 1687.03 1596.58 1688.03 1595.06C1708.86 1563.53 1716.96 1466.97 1763.81 1364.1C1775.22 1339.06 1816.18 1334.56 1827.35 1306.25C1827.35 1306.25 1854.84 1214.49 1774.73 1211.78C1694.63 1209.07 1560.19 1467.1 1558.07 1494.16C1556.01 1520.37 1505.11 1631.78 1660.73 1614.22Z" fill="#ED7D2B"/>
<path d="M1979.12 1612.11H1865.1C1865.1 1612.11 1860.84 1593.92 1868.33 1581.55C1874.95 1570.6 1872.41 1564.36 1867.51 1555.3C1872.67 1557.41 1879.35 1559.34 1886.71 1558.92C1892.39 1558.59 1898.4 1556.01 1903.66 1552.95C1908.57 1558.55 1929.58 1582.36 1936.15 1587.08C1943.6 1592.43 1976.83 1590.53 1979.12 1612.11Z" fill="#233862"/>
<path d="M1829.96 1238.3C1836.82 1289.77 1863.63 1452.23 1910.93 1531.49C1926.17 1557.04 1872.51 1571.37 1872.22 1571.29C1865.02 1569.41 1853.03 1557.94 1847.51 1552.96C1809.11 1518.35 1731.17 1420.37 1731.17 1341.81C1731.17 1303.5 1730.49 1230.35 1758.35 1211.76C1775.5 1200.31 1827.23 1217.86 1829.96 1238.3Z" fill="#ED7D2B"/>
<path d="M1592.74 1612.11C1592.74 1612.11 1596.97 1606.23 1604.33 1595.06C1613.1 1581.78 1622.8 1555.64 1634.58 1522.14C1646.94 1486.97 1661.62 1443.7 1679.95 1398.68C1685.61 1384.78 1691.62 1370.71 1698.01 1356.67C1709.42 1331.63 1740.81 1335.09 1751.98 1306.77C1751.98 1306.77 1795.56 1208.63 1715.45 1205.92C1635.34 1203.22 1483.12 1468.46 1474.37 1494.15C1464.8 1522.28 1418.08 1639.05 1592.74 1612.11Z" fill="#F99746"/>
<path d="M1895.42 1612.11H1781.41C1781.41 1612.11 1777.14 1593.92 1784.63 1581.55C1791.25 1570.6 1788.71 1564.36 1783.81 1555.3C1788.97 1557.41 1795.66 1559.34 1803.01 1558.92C1808.69 1558.59 1814.7 1556.01 1819.97 1552.95C1824.87 1558.55 1845.89 1582.36 1852.45 1587.08C1859.9 1592.43 1893.13 1590.53 1895.42 1612.11Z" fill="#2B478B"/>
<path d="M1634.58 1522.14C1646.94 1486.97 1661.62 1443.7 1679.95 1398.68C1675.16 1364.57 1664.83 1334.73 1647.47 1322.7C1647.47 1322.7 1605.33 1453.23 1634.58 1522.14Z" fill="#F58F3E"/>
<path d="M1763.4 1234.65C1770.27 1286.13 1779.94 1452.23 1827.23 1531.49C1842.48 1557.04 1788.81 1571.37 1788.52 1571.29C1781.33 1569.41 1769.34 1557.94 1763.81 1552.95C1725.41 1518.35 1647.47 1420.36 1647.47 1341.81C1647.47 1303.5 1692.42 1233.42 1720.27 1214.83C1737.43 1203.38 1760.67 1214.21 1763.4 1234.65Z" fill="#F99746"/>
<path d="M2010.21 1074.84L1893.44 1062.44C1890.04 1062.08 1886.82 1064.05 1885.6 1067.25L1843.83 1177.03C1842 1181.84 1845.42 1187.03 1850.57 1187.24L1966.43 1191.91C1969.58 1192.04 1972.47 1190.2 1973.69 1187.29L2016.37 1085.24C2018.31 1080.59 2015.23 1075.37 2010.21 1074.84Z" fill="#233862"/>
<path d="M2020.35 1075.9L1903.59 1063.5C1900.19 1063.14 1896.96 1065.11 1895.75 1068.31L1853.97 1178.09C1852.14 1182.9 1855.57 1188.09 1860.71 1188.3L1976.57 1192.97C1979.72 1193.1 1982.62 1191.26 1983.83 1188.35L2026.51 1086.3C2028.46 1081.65 2025.37 1076.43 2020.35 1075.9Z" fill="#2B478B"/>
<path d="M1955.63 1127.16C1957.06 1123.24 1955.04 1120.06 1951.12 1120.06C1947.2 1120.06 1942.87 1123.24 1941.44 1127.16C1940.01 1131.08 1942.04 1134.25 1945.95 1134.25C1949.87 1134.25 1954.2 1131.08 1955.63 1127.16Z" fill="#EBF3FA"/>
<path d="M2016.86 1086.27C2017.56 1084.35 2016.57 1082.79 2014.64 1082.79C2012.72 1082.79 2010.59 1084.35 2009.89 1086.27C2009.19 1088.2 2010.18 1089.76 2012.1 1089.76C2014.03 1089.76 2016.16 1088.2 2016.86 1086.27Z" fill="#EBF3FA"/>
<path d="M1529.3 1129.5C1529.3 1129.5 1691.13 1189.1 1715.45 1187.88C1731.17 1187.09 1861.8 1141.17 1861.8 1141.17L1873.53 1163.35C1873.53 1163.35 1746.38 1245.08 1711.43 1244.67C1642.41 1243.88 1525.97 1201.51 1512.82 1193.19C1499.68 1184.86 1491.11 1137.93 1529.3 1129.5Z" fill="#FFB27D"/>
<path d="M1861.8 1141.17C1861.8 1141.17 1873.53 1123.12 1885.21 1122.59C1896.88 1122.06 1917.05 1130.55 1923.95 1131.88C1930.85 1133.21 1950.49 1139.58 1944.65 1149.13C1938.82 1158.69 1911.74 1160.81 1900.07 1158.69C1888.39 1156.56 1873.53 1163.35 1873.53 1163.35L1861.8 1141.17Z" fill="#FFB27D"/>
<path d="M1882.03 1123.15C1882.03 1123.15 1900.6 1114.63 1905.91 1113.04C1911.22 1111.44 1910.15 1113.06 1908.56 1118.09C1906.97 1123.12 1897.41 1127.92 1897.41 1129.5C1897.41 1131.08 1882.03 1123.15 1882.03 1123.15Z" fill="#FFB27D"/>
<path d="M2008.33 1131.61C2008.33 1131.61 1996.62 1113.09 1992.78 1112.34C1981.1 1110.03 1981.1 1125.41 1983.58 1135.33C1986.24 1145.97 1995.23 1156.02 1997.72 1155.14C2000.21 1154.26 2011.08 1141.4 2008.33 1131.61Z" fill="#FFB27D"/>
<path d="M2008.77 1135.33C2008.77 1135.33 2012.51 1156.11 1992.78 1166.95L1998.62 1152.65L2008.77 1135.33Z" fill="#FFB27D"/>
<path d="M1670.5 1058.57C1670.5 1058.57 1663.54 1055.82 1643.97 1057.41C1643.97 1057.41 1645.01 1065.05 1659.45 1065.8C1667.62 1066.23 1670.5 1058.57 1670.5 1058.57Z" fill="white"/>
<path d="M1612.68 1158.89C1612.68 1158.89 1598.21 1204.71 1548.5 1215.14C1548.5 1215.14 1466.41 1189.85 1507.28 1133.93C1507.28 1133.93 1547.69 1103.9 1612.68 1158.89Z" fill="white"/>
<path d="M916.879 1356.73C916.879 1372.55 912.463 1387.32 904.813 1399.92C904.813 1399.94 904.794 1399.94 904.794 1399.96C902.682 1403.42 900.321 1406.73 897.733 1409.83C896.077 1411.81 894.345 1413.74 892.518 1415.56C888.102 1419.98 883.211 1423.9 877.882 1427.23C866.501 1434.39 853.255 1438.84 839.038 1439.75C837.287 1439.87 835.498 1439.92 833.709 1439.92C816.751 1439.92 800.993 1434.84 787.842 1426.13C783.883 1423.52 780.172 1420.57 776.727 1417.33C770.466 1411.43 765.118 1404.6 760.931 1397.03C754.308 1385.09 750.539 1371.35 750.539 1356.73C750.539 1333.78 759.846 1312.98 774.9 1297.93C789.954 1282.89 810.737 1273.58 833.709 1273.58C856.681 1273.58 877.464 1282.89 892.518 1297.93C907.571 1312.98 916.879 1333.78 916.879 1356.73Z" fill="white"/>
<path d="M800.606 1391.88C796.028 1387.78 797.684 1380.86 797.756 1380.57L802.126 1381.8L799.941 1381.19L802.129 1381.79C802.119 1381.83 801.147 1386.06 803.515 1388.19L800.606 1391.88Z" fill="#F99746"/>
<path d="M862.096 1391.88C866.674 1387.78 865.018 1380.86 864.946 1380.57L860.577 1381.8L862.761 1381.19L860.573 1381.79C860.583 1381.83 861.556 1386.06 859.188 1388.19L862.096 1391.88Z" fill="#F99746"/>
<path d="M877.882 1395.39V1427.23C866.501 1434.39 853.255 1438.84 839.038 1439.75C837.287 1439.87 835.498 1439.92 833.709 1439.92C816.751 1439.92 800.993 1434.84 787.842 1426.12C783.883 1423.52 780.172 1420.57 776.727 1417.33C770.466 1411.43 765.118 1404.6 760.931 1397.02V1395.39C760.931 1391.16 764.395 1387.72 768.62 1387.72H870.212C874.437 1387.72 877.882 1391.16 877.882 1395.39Z" fill="#ED7D2B"/>
<path d="M904.793 1395.39V1399.96C902.681 1403.42 900.32 1406.73 897.732 1409.83C896.076 1411.81 894.344 1413.73 892.517 1415.56C888.101 1419.98 883.21 1423.9 877.881 1427.23C866.5 1434.39 853.254 1438.84 839.037 1439.75C837.286 1439.87 835.497 1439.92 833.708 1439.92C816.75 1439.92 800.992 1434.84 787.841 1426.12V1395.39C787.841 1391.16 791.305 1387.72 795.53 1387.72H897.103C901.329 1387.72 904.793 1391.16 904.793 1395.39Z" fill="#F99746"/>
<path d="M856.547 1383.02H819.414V1387.71H856.547V1383.02Z" fill="#4C88F2"/>
<path d="M826.176 1383.02H804.701V1387.71H826.176V1383.02Z" fill="#2C3A64"/>
<path d="M815.442 1323.8C815.442 1320.65 812.895 1318.11 809.753 1318.11C806.611 1318.11 804.063 1320.65 804.063 1323.8C804.063 1326.94 806.611 1329.49 809.753 1329.49C812.895 1329.49 815.442 1326.94 815.442 1323.8Z" fill="#2C3A64"/>
<path d="M809.753 1321.61C810.203 1321.61 810.57 1321.24 810.57 1320.79V1297.76C810.57 1297.32 810.202 1296.95 809.753 1296.95C809.303 1296.95 808.936 1297.32 808.936 1297.76V1320.79C808.936 1321.24 809.303 1321.61 809.753 1321.61Z" fill="#2C3A64"/>
<path d="M881.612 1323.8C881.612 1320.65 879.065 1318.11 875.923 1318.11C872.78 1318.11 870.234 1320.65 870.234 1323.8C870.234 1326.94 872.781 1329.49 875.923 1329.49C879.065 1329.49 881.612 1326.94 881.612 1323.8Z" fill="#2C3A64"/>
<path d="M868.274 1383.02H778.262C772.118 1383.02 767.091 1377.99 767.091 1371.85V1333.64C767.091 1327.5 772.118 1322.47 778.262 1322.47H868.274C874.418 1322.47 879.445 1327.5 879.445 1333.64V1371.85C879.445 1377.99 874.418 1383.02 868.274 1383.02Z" fill="#ED7D2B"/>
<path d="M892 1383.02H800.633C794.862 1383.02 790.14 1378.3 790.14 1372.53V1332.96C790.14 1327.19 794.862 1322.47 800.633 1322.47H892C897.771 1322.47 902.493 1327.19 902.493 1332.96V1372.53C902.493 1378.3 897.771 1383.02 892 1383.02Z" fill="#F99746"/>
<path d="M866.978 1361.66H821.008C821.008 1361.66 825.693 1371.38 846.316 1371.39C863.243 1371.39 866.978 1361.66 866.978 1361.66Z" fill="#EBF3FA"/>
<path d="M796.346 1355.55H893.185V1334.32H796.346V1355.55Z" fill="#4C88F2"/>
<path d="M874.41 1345.41H876.619V1343.2H874.41V1345.41Z" fill="#EBF3FA"/>
<path d="M877.206 1345.41H879.415V1343.2H877.206V1345.41Z" fill="#EBF3FA"/>
<path d="M877.206 1348.29H879.415V1346.09H877.206V1348.29Z" fill="#EBF3FA"/>
<path d="M880.099 1345.41H882.309V1343.2H880.099V1345.41Z" fill="#EBF3FA"/>
<path d="M871.603 1345.41H873.812V1343.2H871.603V1345.41Z" fill="#EBF3FA"/>
<path d="M871.603 1348.29H873.812V1346.09H871.603V1348.29Z" fill="#EBF3FA"/>
<path d="M868.793 1345.41H871.003V1343.2H868.793V1345.41Z" fill="#EBF3FA"/>
<path d="M874.41 1342.55H876.619V1340.34H874.41V1342.55Z" fill="#EBF3FA"/>
<path d="M874.41 1339.9H876.619V1337.69H874.41V1339.9Z" fill="#EBF3FA"/>
<path d="M871.603 1342.55H873.812V1340.34H871.603V1342.55Z" fill="#EBF3FA"/>
<path d="M877.206 1342.55H879.415V1340.34H877.206V1342.55Z" fill="#EBF3FA"/>
<path d="M874.41 1348.29H876.619V1346.09H874.41V1348.29Z" fill="#EBF3FA"/>
<path d="M874.41 1351.2H876.619V1348.99H874.41V1351.2Z" fill="#EBF3FA"/>
<path d="M815.369 1345.41H817.578V1343.2H815.369V1345.41Z" fill="#EBF3FA"/>
<path d="M818.165 1345.41H820.375V1343.2H818.165V1345.41Z" fill="#EBF3FA"/>
<path d="M818.165 1348.29H820.375V1346.09H818.165V1348.29Z" fill="#EBF3FA"/>
<path d="M821.058 1345.41H823.268V1343.2H821.058V1345.41Z" fill="#EBF3FA"/>
<path d="M812.561 1345.41H814.771V1343.2H812.561V1345.41Z" fill="#EBF3FA"/>
<path d="M812.561 1348.29H814.771V1346.09H812.561V1348.29Z" fill="#EBF3FA"/>
<path d="M809.752 1345.41H811.962V1343.2H809.752V1345.41Z" fill="#EBF3FA"/>
<path d="M815.369 1342.55H817.578V1340.34H815.369V1342.55Z" fill="#EBF3FA"/>
<path d="M815.369 1339.9H817.578V1337.69H815.369V1339.9Z" fill="#EBF3FA"/>
<path d="M812.561 1342.55H814.771V1340.34H812.561V1342.55Z" fill="#EBF3FA"/>
<path d="M818.165 1342.55H820.375V1340.34H818.165V1342.55Z" fill="#EBF3FA"/>
<path d="M815.369 1348.29H817.578V1346.09H815.369V1348.29Z" fill="#EBF3FA"/>
<path d="M815.369 1351.2H817.578V1348.99H815.369V1351.2Z" fill="#EBF3FA"/>
<path d="M875.924 1321.61C876.373 1321.61 876.74 1321.24 876.74 1320.79V1297.76C876.74 1297.32 876.373 1296.95 875.924 1296.95C875.474 1296.95 875.105 1297.32 875.105 1297.76V1320.79C875.105 1321.24 875.474 1321.61 875.924 1321.61Z" fill="#2C3A64"/>
<path d="M815.404 1394.69C815.404 1393.82 814.695 1393.11 813.82 1393.11C812.945 1393.11 812.237 1393.82 812.237 1394.69C812.237 1395.57 812.946 1396.27 813.82 1396.27C814.695 1396.27 815.404 1395.57 815.404 1394.69Z" fill="white"/>
<path d="M808.616 1394.69C808.616 1393.82 807.907 1393.11 807.032 1393.11C806.157 1393.11 805.448 1393.82 805.448 1394.69C805.448 1395.57 806.157 1396.27 807.032 1396.27C807.907 1396.27 808.616 1395.57 808.616 1394.69Z" fill="white"/>
<path d="M801.896 1394.69C801.896 1393.82 801.187 1393.11 800.313 1393.11C799.438 1393.11 798.729 1393.82 798.729 1394.69C798.729 1395.57 799.438 1396.27 800.313 1396.27C801.187 1396.27 801.896 1395.57 801.896 1394.69Z" fill="white"/>
<path d="M1291.58 1168.61C1291.58 1192.49 1301.65 1214.03 1317.77 1229.2C1332.66 1243.2 1352.7 1251.78 1374.75 1251.78C1376.54 1251.78 1378.32 1251.73 1380.09 1251.62C1400.93 1250.29 1419.68 1241.3 1433.56 1227.42C1435.39 1225.6 1437.13 1223.68 1438.78 1221.7C1441.37 1218.57 1443.74 1215.26 1445.85 1211.78C1453.51 1199.19 1457.92 1184.41 1457.92 1168.61C1457.92 1145.65 1448.61 1124.85 1433.56 1109.8C1418.51 1094.75 1397.72 1085.44 1374.75 1085.44C1351.78 1085.44 1331 1094.75 1315.94 1109.8C1300.89 1124.85 1291.58 1145.65 1291.58 1168.61Z" fill="white"/>
<path d="M1326.44 1206.27C1327.91 1207.29 1329.55 1208.14 1331.36 1208.81C1344.32 1220.09 1364.93 1238.29 1380.09 1251.62C1400.93 1250.29 1419.68 1241.3 1433.56 1227.42C1435.39 1225.6 1437.13 1223.68 1438.78 1221.7C1441.37 1218.57 1443.74 1215.26 1445.85 1211.78C1444.07 1208.61 1441.92 1205.4 1439.4 1202.13C1426.02 1184.83 1415.11 1178.95 1418.1 1156.6C1419.72 1144.47 1411.93 1101.58 1384.07 1099.37C1381.74 1099.19 1367.67 1096.82 1357.47 1099.65C1332.76 1106.5 1298 1186.66 1326.44 1206.27Z" fill="#233862"/>
<path d="M1355.27 1201.5C1355.14 1201.55 1366.84 1208.59 1376.1 1206.68C1384.8 1204.89 1393.65 1193.11 1393.54 1193.08C1389.96 1192.13 1386.67 1188.11 1388.1 1166.71L1386.44 1166.93L1358.55 1170.65C1358.55 1170.65 1358.62 1179.36 1358.13 1187.53C1357.71 1194.39 1356.89 1200.86 1355.27 1201.5Z" fill="#FFB27D"/>
<path d="M1358.55 1170.65C1358.55 1170.65 1358.62 1179.36 1358.13 1187.53C1373.57 1188.07 1382.61 1174.52 1386.44 1166.93L1358.55 1170.65Z" fill="#ED975D"/>
<path d="M1352.91 1178.06C1352.91 1178.06 1389.35 1180.96 1390.81 1158.24C1392.27 1135.52 1397.96 1120.59 1374.75 1117.78C1351.55 1114.96 1346.47 1123.34 1344.13 1130.8C1341.8 1138.27 1343.47 1176.71 1352.91 1178.06Z" fill="#FFB27D"/>
<path d="M1348.03 1119.02C1348.03 1119.02 1366.48 1143.46 1381.56 1148.37C1396.63 1153.28 1403.54 1149.59 1403.54 1149.59C1403.54 1149.59 1396.09 1140.08 1393.25 1126.72C1392.42 1122.78 1389.54 1119.58 1385.7 1118.4C1374.89 1115.06 1354.11 1110.11 1348.03 1119.02Z" fill="#233862"/>
<path d="M1362.58 1120.34C1362.58 1120.34 1353.41 1126.03 1349.85 1130.95C1346.41 1135.7 1343 1148.1 1343.76 1153.49C1343.76 1153.49 1336.91 1127.95 1346.02 1118.24C1355.67 1107.94 1362.58 1120.34 1362.58 1120.34Z" fill="#233862"/>
<path d="M1317.77 1229.2C1332.66 1243.2 1352.7 1251.78 1374.75 1251.78H1380.28C1380.21 1251.73 1380.16 1251.67 1380.09 1251.62C1400.93 1250.29 1419.68 1241.3 1433.56 1227.42C1435.39 1225.6 1437.13 1223.68 1438.78 1221.7C1435.9 1215.43 1433.13 1210.33 1430.74 1207.01C1420.43 1192.63 1390.64 1190.8 1390.64 1190.8V1190.81C1390.64 1190.82 1390.63 1190.81 1390.62 1190.82C1390.56 1190.85 1390.51 1190.88 1390.46 1190.92C1379.12 1197.61 1371.66 1199.73 1366.77 1199.73C1359.54 1199.73 1357.89 1195.15 1357.57 1193.98C1357.57 1193.98 1357.57 1193.98 1357.57 1193.98L1357.57 1193.97V1193.95C1357.53 1193.79 1357.52 1193.71 1357.52 1193.71V1193.7C1357.52 1193.7 1336.02 1197.35 1326.44 1206.27C1324.43 1208.14 1322.94 1210.25 1322.3 1212.62C1321.5 1215.55 1319.86 1221.56 1317.77 1229.2Z" fill="#F99746"/>
<path d="M619.878 1057.59H1302.19C1322.54 1057.59 1339.03 1041.1 1339.03 1020.75V833.139C1339.03 812.79 1322.54 796.295 1302.19 796.295H619.878C599.529 796.295 583.034 812.791 583.034 833.139V1020.75C583.033 1041.1 599.529 1057.59 619.878 1057.59Z" fill="white"/>
<path d="M827.968 926.922C827.968 945.523 822.775 962.893 813.777 977.71C813.777 977.732 813.755 977.732 813.755 977.755C811.271 981.829 808.495 985.724 805.451 989.372C803.504 991.7 801.467 993.961 799.318 996.109C794.125 1001.3 788.372 1005.91 782.105 1009.83C768.72 1018.25 753.141 1023.48 736.42 1024.56C734.36 1024.69 732.256 1024.76 730.152 1024.76C710.208 1024.76 691.674 1018.78 676.208 1008.53C671.552 1005.47 667.187 1002 663.136 998.191C655.772 991.252 649.482 983.216 644.558 974.307C636.769 960.273 632.337 944.112 632.337 926.921C632.337 899.927 643.282 875.461 660.987 857.756C678.693 840.073 703.135 829.128 730.153 829.128C757.17 829.128 781.613 840.073 799.318 857.756C817.022 875.462 827.968 899.928 827.968 926.922Z" fill="#DFEBFD"/>
<path d="M691.219 968.257C685.835 963.429 687.783 955.293 687.869 954.948L693.008 956.406L690.438 955.677L693.011 956.391C692.999 956.441 691.856 961.413 694.641 963.912L691.219 968.257Z" fill="#F99746"/>
<path d="M763.539 968.257C768.923 963.429 766.976 955.293 766.891 954.948L761.752 956.406L764.321 955.677L761.749 956.391C761.761 956.441 762.904 961.413 760.119 963.912L763.539 968.257Z" fill="#F99746"/>
<path d="M782.104 972.383V1009.83C768.719 1018.25 753.14 1023.48 736.419 1024.56C734.359 1024.69 732.255 1024.76 730.151 1024.76C710.207 1024.76 691.673 1018.78 676.207 1008.53C671.551 1005.47 667.186 1002 663.135 998.191C655.771 991.252 649.481 983.216 644.557 974.307V972.382C644.557 967.413 648.631 963.361 653.6 963.361H773.083C778.053 963.362 782.104 967.414 782.104 972.383Z" fill="#ED7D2B"/>
<path d="M813.754 972.383V977.755C811.27 981.829 808.494 985.724 805.45 989.372C803.503 991.7 801.466 993.961 799.317 996.109C794.124 1001.3 788.371 1005.91 782.104 1009.83C768.719 1018.25 753.14 1023.48 736.419 1024.56C734.359 1024.69 732.255 1024.76 730.151 1024.76C710.207 1024.76 691.673 1018.78 676.207 1008.53V972.383C676.207 967.414 680.281 963.362 685.25 963.362H804.71C809.681 963.362 813.754 967.414 813.754 972.383Z" fill="#F99746"/>
<path d="M757.011 957.834H713.339V963.357H757.011V957.834Z" fill="#4C88F2"/>
<path d="M721.291 957.834H696.035V963.357H721.291V957.834Z" fill="#2C3A64"/>
<path d="M701.978 894.874C705.673 894.874 708.669 891.879 708.669 888.183C708.669 884.488 705.673 881.492 701.978 881.492C698.283 881.492 695.287 884.488 695.287 888.183C695.287 891.879 698.283 894.874 701.978 894.874Z" fill="#2C3A64"/>
<path d="M701.978 885.61C702.507 885.61 702.939 885.177 702.939 884.648V857.566C702.939 857.037 702.506 856.605 701.978 856.605C701.449 856.605 701.017 857.038 701.017 857.566V884.648C701.016 885.178 701.449 885.61 701.978 885.61Z" fill="#2C3A64"/>
<path d="M779.8 894.874C783.496 894.874 786.491 891.879 786.491 888.183C786.491 884.488 783.496 881.492 779.8 881.492C776.105 881.492 773.109 884.488 773.109 888.183C773.109 891.879 776.105 894.874 779.8 894.874Z" fill="#2C3A64"/>
<path d="M770.804 957.834H664.94C657.714 957.834 651.802 951.922 651.802 944.696V899.761C651.802 892.535 657.714 886.623 664.94 886.623H770.804C778.03 886.623 783.942 892.535 783.942 899.761V944.696C783.942 951.922 778.03 957.834 770.804 957.834Z" fill="#ED7D2B"/>
<path d="M798.707 957.834H691.25C684.462 957.834 678.908 952.281 678.908 945.493V898.966C678.908 892.178 684.462 886.624 691.25 886.624H798.707C805.495 886.624 811.048 892.178 811.048 898.966V945.493C811.048 952.281 805.494 957.834 798.707 957.834Z" fill="#F99746"/>
<path d="M769.279 932.711H715.214C715.214 932.711 720.724 944.148 744.979 944.153C764.887 944.157 769.279 932.711 769.279 932.711Z" fill="#EBF3FA"/>
<path d="M686.208 925.525H800.101V900.564H686.208V925.525Z" fill="#4C88F2"/>
<path d="M778.02 913.598H780.619V910.999H778.02V913.598Z" fill="#EBF3FA"/>
<path d="M781.308 913.598H783.907V910.999H781.308V913.598Z" fill="#EBF3FA"/>
<path d="M781.308 916.995H783.907V914.396H781.308V916.995Z" fill="#EBF3FA"/>
<path d="M784.712 913.598H787.311V910.999H784.712V913.598Z" fill="#EBF3FA"/>
<path d="M774.718 913.598H777.316V910.999H774.718V913.598Z" fill="#EBF3FA"/>
<path d="M774.718 916.995H777.316V914.396H774.718V916.995Z" fill="#EBF3FA"/>
<path d="M771.416 913.598H774.015V910.999H771.416V913.598Z" fill="#EBF3FA"/>
<path d="M778.02 910.239H780.619V907.64H778.02V910.239Z" fill="#EBF3FA"/>
<path d="M778.02 907.119H780.619V904.52H778.02V907.119Z" fill="#EBF3FA"/>
<path d="M774.718 910.239H777.316V907.64H774.718V910.239Z" fill="#EBF3FA"/>
<path d="M781.308 910.239H783.907V907.64H781.308V910.239Z" fill="#EBF3FA"/>
<path d="M778.02 916.995H780.619V914.396H778.02V916.995Z" fill="#EBF3FA"/>
<path d="M778.02 920.416H780.619V917.817H778.02V920.416Z" fill="#EBF3FA"/>
<path d="M708.582 913.598H711.181V910.999H708.582V913.598Z" fill="#EBF3FA"/>
<path d="M711.871 913.598H714.47V910.999H711.871V913.598Z" fill="#EBF3FA"/>
<path d="M711.871 916.995H714.47V914.396H711.871V916.995Z" fill="#EBF3FA"/>
<path d="M715.272 913.598H717.871V910.999H715.272V913.598Z" fill="#EBF3FA"/>
<path d="M705.279 913.598H707.878V910.999H705.279V913.598Z" fill="#EBF3FA"/>
<path d="M705.279 916.995H707.878V914.396H705.279V916.995Z" fill="#EBF3FA"/>
<path d="M701.976 913.598H704.575V910.999H701.976V913.598Z" fill="#EBF3FA"/>
<path d="M708.582 910.239H711.181V907.64H708.582V910.239Z" fill="#EBF3FA"/>
<path d="M708.582 907.119H711.181V904.52H708.582V907.119Z" fill="#EBF3FA"/>
<path d="M705.279 910.239H707.878V907.64H705.279V910.239Z" fill="#EBF3FA"/>
<path d="M711.871 910.239H714.47V907.64H711.871V910.239Z" fill="#EBF3FA"/>
<path d="M708.582 916.995H711.181V914.396H708.582V916.995Z" fill="#EBF3FA"/>
<path d="M708.582 920.416H711.181V917.817H708.582V920.416Z" fill="#EBF3FA"/>
<path d="M779.801 885.61C780.33 885.61 780.762 885.177 780.762 884.648V857.566C780.762 857.037 780.329 856.605 779.801 856.605C779.272 856.605 778.84 857.038 778.84 857.566V884.648C778.839 885.178 779.272 885.61 779.801 885.61Z" fill="#2C3A64"/>
<path d="M708.624 971.561C708.624 970.533 707.79 969.699 706.761 969.699C705.732 969.699 704.898 970.533 704.898 971.561C704.898 972.59 705.732 973.424 706.761 973.424C707.79 973.424 708.624 972.591 708.624 971.561Z" fill="white"/>
<path d="M700.642 971.561C700.642 970.533 699.808 969.699 698.779 969.699C697.75 969.699 696.916 970.533 696.916 971.561C696.916 972.59 697.75 973.424 698.779 973.424C699.808 973.424 700.642 972.591 700.642 971.561Z" fill="white"/>
<path d="M692.738 971.561C692.738 970.533 691.904 969.699 690.875 969.699C689.847 969.699 689.013 970.533 689.013 971.561C689.013 972.59 689.847 973.424 690.875 973.424C691.904 973.425 692.738 972.591 692.738 971.561Z" fill="white"/>
<path d="M980.935 908.767H886.118V921.062H980.935V908.767Z" fill="#CBE1FD"/>
<path d="M1004.3 933.357H886.118V945.651H1004.3V933.357Z" fill="#CBE1FD"/>
<path d="M1100.75 933.357H1013.72V945.651H1100.75V933.357Z" fill="#CBE1FD"/>
<path d="M973.148 957.416H886.118V969.71H973.148V957.416Z" fill="#CBE1FD"/>
<path d="M1054.34 908.767H991.135V921.062H1054.34V908.767Z" fill="#CBE1FD"/>
<path d="M1195.83 908.767H1067.98V921.062H1195.83V908.767Z" fill="#CBE1FD"/>
<path d="M1021.31 847.901H887.07V865.308H1021.31V847.901Z" fill="#CBE1FD"/>
<path d="M1221.61 847.901H1036.14V865.308H1221.61V847.901Z" fill="#CBE1FD"/>
<path d="M961.032 1165.48H898.688V1173.56H961.032V1165.48Z" fill="white"/>
<path d="M976.394 1181.64H898.688V1189.73H976.394V1181.64Z" fill="white"/>
<path d="M1039.82 1181.64H982.591V1189.73H1039.82V1181.64Z" fill="white"/>
<path d="M955.912 1197.46H898.688V1205.55H955.912V1197.46Z" fill="white"/>
<path d="M1009.3 1165.48H967.738V1173.56H1009.3V1165.48Z" fill="white"/>
<path d="M1102.33 1165.48H1018.26V1173.56H1102.33V1165.48Z" fill="white"/>
<path d="M987.583 1125.45H899.313V1136.9H987.583V1125.45Z" fill="white"/>
<path d="M1119.29 1125.45H997.334V1136.9H1119.29V1125.45Z" fill="white"/>
<path d="M1049.64 1360.75H987.29V1368.83H1049.64V1360.75Z" fill="#CBE1FD"/>
<path d="M1065 1376.91H987.29V1385H1065V1376.91Z" fill="#CBE1FD"/>
<path d="M1128.42 1376.91H1071.19V1385H1128.42V1376.91Z" fill="#CBE1FD"/>
<path d="M1044.51 1392.73H987.29V1400.82H1044.51V1392.73Z" fill="#CBE1FD"/>
<path d="M1097.9 1360.75H1056.34V1368.83H1097.9V1360.75Z" fill="#CBE1FD"/>
<path d="M1190.93 1360.75H1106.87V1368.83H1190.93V1360.75Z" fill="#CBE1FD"/>
<path d="M1076.19 1320.72H987.916V1332.17H1076.19V1320.72Z" fill="#CBE1FD"/>
<path d="M1207.89 1320.72H1085.94V1332.17H1207.89V1320.72Z" fill="#CBE1FD"/>
<path d="M1438.09 309.577L1429.92 315.441L1421.7 309.64C1423.52 307.078 1426.53 305.385 1429.92 305.385C1433.28 305.386 1436.27 307.036 1438.09 309.577Z" fill="#2B478B"/>
<path d="M1429.92 291.096C1421.7 291.096 1414.44 295.182 1410.04 301.427L1415.23 305.068C1418.49 300.453 1423.86 297.447 1429.92 297.447C1435.93 297.447 1441.26 300.41 1444.52 304.962L1449.69 301.258C1445.26 295.098 1438.05 291.096 1429.92 291.096Z" fill="#2B478B"/>
<path d="M1429.92 263.936C1412.54 263.936 1397.17 272.573 1387.85 285.783L1393.04 289.424C1401.21 277.866 1414.7 270.287 1429.92 270.287C1445.01 270.287 1458.41 277.739 1466.6 289.149L1471.75 285.444C1462.41 272.425 1447.15 263.936 1429.92 263.936Z" fill="#2B478B"/>
<path d="M1429.92 278.797C1417.55 278.797 1406.59 284.915 1399.92 294.293L1405.11 297.934C1410.63 290.207 1419.69 285.148 1429.92 285.148C1440.06 285.148 1449.05 290.123 1454.6 297.744L1459.75 294.06C1453.05 284.809 1442.17 278.797 1429.92 278.797Z" fill="#2B478B"/>
<path d="M2564.47 1619.78H3.23401C1.45501 1619.78 0 1618.33 0 1616.55V1614.6C0 1612.82 1.45501 1611.37 3.23401 1611.37H2564.47C2566.25 1611.37 2567.71 1612.82 2567.71 1614.6V1616.55C2567.71 1618.33 2566.25 1619.78 2564.47 1619.78Z" fill="#2E3552"/>
</svg>
