<svg width="92" height="34" viewBox="0 0 92 34" fill="none" xmlns="http://www.w3.org/2000/svg">
<g clip-path="url(#clip0_7_20)">
<path d="M16 1.25H76.859C86.1357 2.25446 90.7551 9.47372 90.7465 16.7859C90.7379 24.0986 86.0994 31.4631 76.8552 32.75H16C7.3015 32.75 0.25 25.6985 0.25 17C0.25 8.30152 7.30152 1.25 16 1.25Z" fill="#E03D9A" stroke="#E03D9A" stroke-width="0.5"/>
<path d="M35.8756 20.432V22H29.2196V10.48H31.0916V20.432H35.8756ZM40.1932 13.712C40.7959 13.712 41.3399 13.8107 41.8252 14.008C42.3159 14.2053 42.7319 14.4853 43.0732 14.848C43.4199 15.2107 43.6865 15.6507 43.8732 16.168C44.0599 16.6853 44.1532 17.2667 44.1532 17.912C44.1532 18.5573 44.0599 19.1387 43.8732 19.656C43.6865 20.1733 43.4199 20.616 43.0732 20.984C42.7319 21.3467 42.3159 21.6267 41.8252 21.824C41.3399 22.0213 40.7959 22.12 40.1932 22.12C39.5852 22.12 39.0359 22.0213 38.5452 21.824C38.0599 21.6267 37.6439 21.3467 37.2972 20.984C36.9505 20.616 36.6839 20.1733 36.4972 19.656C36.3105 19.1387 36.2172 18.5573 36.2172 17.912C36.2172 17.2667 36.3105 16.6853 36.4972 16.168C36.6839 15.6507 36.9505 15.2107 37.2972 14.848C37.6439 14.4853 38.0599 14.2053 38.5452 14.008C39.0359 13.8107 39.5852 13.712 40.1932 13.712ZM40.1932 20.776C40.9292 20.776 41.4759 20.5307 41.8332 20.04C42.1959 19.544 42.3772 18.8373 42.3772 17.92C42.3772 17.0027 42.1959 16.296 41.8332 15.8C41.4759 15.2987 40.9292 15.048 40.1932 15.048C39.4465 15.048 38.8919 15.2987 38.5292 15.8C38.1665 16.296 37.9852 17.0027 37.9852 17.92C37.9852 18.8373 38.1665 19.544 38.5292 20.04C38.8919 20.5307 39.4465 20.776 40.1932 20.776ZM50.1658 18.432C49.5525 18.4533 49.0351 18.504 48.6138 18.584C48.1925 18.6587 47.8511 18.7573 47.5898 18.88C47.3285 18.9973 47.1391 19.1387 47.0218 19.304C46.9098 19.4693 46.8538 19.6507 46.8538 19.848C46.8538 20.04 46.8831 20.2053 46.9418 20.344C47.0058 20.4773 47.0911 20.5893 47.1978 20.68C47.3098 20.7653 47.4378 20.8293 47.5818 20.872C47.7311 20.9093 47.8938 20.928 48.0698 20.928C48.5178 20.928 48.9018 20.8453 49.2218 20.68C49.5471 20.5093 49.8618 20.264 50.1658 19.944V18.432ZM45.6058 14.976C46.5285 14.1173 47.6271 13.688 48.9018 13.688C49.3711 13.688 49.7871 13.7653 50.1498 13.92C50.5178 14.0693 50.8245 14.2827 51.0698 14.56C51.3205 14.8373 51.5098 15.168 51.6378 15.552C51.7711 15.9307 51.8378 16.352 51.8378 16.816V22H51.0698C50.9045 22 50.7791 21.976 50.6938 21.928C50.6085 21.8747 50.5365 21.7707 50.4778 21.616L50.3098 20.952C50.1018 21.1387 49.8965 21.3067 49.6938 21.456C49.4911 21.6 49.2805 21.7227 49.0618 21.824C48.8485 21.9253 48.6165 22 48.3658 22.048C48.1205 22.1013 47.8485 22.128 47.5498 22.128C47.2191 22.128 46.9098 22.0827 46.6218 21.992C46.3391 21.9013 46.0938 21.7653 45.8858 21.584C45.6778 21.3973 45.5125 21.168 45.3898 20.896C45.2725 20.624 45.2138 20.304 45.2138 19.936C45.2138 19.6213 45.2965 19.3147 45.4618 19.016C45.6325 18.7173 45.9098 18.4507 46.2938 18.216C46.6831 17.976 47.1925 17.7787 47.8218 17.624C48.4565 17.4693 49.2378 17.3813 50.1658 17.36V16.816C50.1658 16.2293 50.0405 15.792 49.7898 15.504C49.5391 15.216 49.1711 15.072 48.6858 15.072C48.3551 15.072 48.0778 15.1147 47.8538 15.2C47.6298 15.28 47.4351 15.368 47.2698 15.464C47.1045 15.56 46.9578 15.6507 46.8298 15.736C46.7018 15.816 46.5658 15.856 46.4218 15.856C46.3045 15.856 46.2031 15.8267 46.1178 15.768C46.0378 15.704 45.9711 15.6267 45.9178 15.536L45.6058 14.976ZM59.0607 15.848C58.8207 15.5387 58.5567 15.3227 58.2687 15.2C57.9807 15.0773 57.6687 15.016 57.3327 15.016C56.6607 15.016 56.1354 15.264 55.7567 15.76C55.378 16.2507 55.1887 16.9787 55.1887 17.944C55.1887 18.4453 55.2314 18.8747 55.3167 19.232C55.402 19.584 55.5247 19.872 55.6847 20.096C55.8447 20.32 56.0394 20.4827 56.2687 20.584C56.498 20.6853 56.7567 20.736 57.0447 20.736C57.482 20.736 57.858 20.6427 58.1727 20.456C58.4927 20.264 58.7887 19.9947 59.0607 19.648V15.848ZM60.7807 10.16V22H59.7407C59.5114 22 59.3647 21.8907 59.3007 21.672L59.1487 20.784C58.8074 21.184 58.418 21.5067 57.9807 21.752C57.5487 21.9973 57.0447 22.12 56.4687 22.12C56.01 22.12 55.594 22.0293 55.2207 21.848C54.8474 21.6613 54.5274 21.392 54.2607 21.04C53.994 20.688 53.786 20.2533 53.6367 19.736C53.4927 19.2133 53.4207 18.616 53.4207 17.944C53.4207 17.336 53.5007 16.7733 53.6607 16.256C53.826 15.7387 54.0607 15.2907 54.3647 14.912C54.6687 14.528 55.0367 14.2293 55.4687 14.016C55.906 13.7973 56.394 13.688 56.9327 13.688C57.4127 13.688 57.8207 13.7653 58.1567 13.92C58.4927 14.0693 58.794 14.28 59.0607 14.552V10.16H60.7807ZM64.6759 13.84V22H62.9559V13.84H64.6759ZM64.9639 11.376C64.9639 11.5307 64.9319 11.6773 64.8679 11.816C64.8093 11.9547 64.7266 12.0773 64.6199 12.184C64.5133 12.2853 64.3879 12.368 64.2439 12.432C64.1053 12.4907 63.9559 12.52 63.7959 12.52C63.6413 12.52 63.4946 12.4907 63.3559 12.432C63.2226 12.368 63.1053 12.2853 63.0039 12.184C62.9026 12.0773 62.8199 11.9547 62.7559 11.816C62.6973 11.6773 62.6679 11.5307 62.6679 11.376C62.6679 11.216 62.6973 11.0667 62.7559 10.928C62.8199 10.7893 62.9026 10.6693 63.0039 10.568C63.1053 10.4613 63.2226 10.3787 63.3559 10.32C63.4946 10.256 63.6413 10.224 63.7959 10.224C63.9559 10.224 64.1053 10.256 64.2439 10.32C64.3879 10.3787 64.5133 10.4613 64.6199 10.568C64.7266 10.6693 64.8093 10.7893 64.8679 10.928C64.9319 11.0667 64.9639 11.216 64.9639 11.376ZM68.4451 14.92C68.6211 14.7387 68.8024 14.576 68.9891 14.432C69.1811 14.2827 69.3837 14.1547 69.5971 14.048C69.8104 13.9413 70.0371 13.8587 70.2771 13.8C70.5171 13.7413 70.7784 13.712 71.0611 13.712C71.5091 13.712 71.9011 13.7867 72.2371 13.936C72.5784 14.0853 72.8637 14.296 73.0931 14.568C73.3277 14.84 73.5037 15.168 73.6211 15.552C73.7384 15.9307 73.7971 16.3493 73.7971 16.808V22H72.0851V16.808C72.0851 16.2587 71.9571 15.832 71.7011 15.528C71.4504 15.224 71.0664 15.072 70.5491 15.072C70.1651 15.072 69.8077 15.16 69.4771 15.336C69.1517 15.512 68.8451 15.752 68.5571 16.056V22H66.8371V13.84H67.8771C68.1117 13.84 68.2611 13.9493 68.3251 14.168L68.4451 14.92ZM78.7178 17.848C79.2511 17.848 79.6511 17.712 79.9178 17.44C80.1845 17.168 80.3178 16.8133 80.3178 16.376C80.3178 15.928 80.1845 15.5733 79.9178 15.312C79.6511 15.0507 79.2511 14.92 78.7178 14.92C78.1898 14.92 77.7898 15.0507 77.5178 15.312C77.2511 15.5733 77.1178 15.928 77.1178 16.376C77.1178 16.5893 77.1525 16.7867 77.2218 16.968C77.2911 17.1493 77.3925 17.3067 77.5258 17.44C77.6591 17.568 77.8245 17.6693 78.0218 17.744C78.2245 17.8133 78.4565 17.848 78.7178 17.848ZM81.1098 22.4C81.1098 22.2187 81.0565 22.0747 80.9498 21.968C80.8485 21.856 80.7098 21.7707 80.5338 21.712C80.3578 21.648 80.1525 21.6027 79.9178 21.576C79.6831 21.544 79.4325 21.5227 79.1658 21.512C78.9045 21.496 78.6351 21.4827 78.3578 21.472C78.0858 21.456 77.8218 21.4293 77.5658 21.392C77.3098 21.5253 77.0991 21.6853 76.9338 21.872C76.7738 22.0587 76.6938 22.2747 76.6938 22.52C76.6938 22.68 76.7338 22.8293 76.8138 22.968C76.8991 23.1067 77.0271 23.2267 77.1978 23.328C77.3738 23.4293 77.5951 23.5093 77.8618 23.568C78.1338 23.6267 78.4591 23.656 78.8378 23.656C79.5951 23.656 80.1631 23.5387 80.5418 23.304C80.9205 23.0693 81.1098 22.768 81.1098 22.4ZM82.8378 14.136V14.776C82.8378 14.9893 82.7098 15.12 82.4538 15.168L81.6378 15.304C81.7765 15.6133 81.8458 15.9573 81.8458 16.336C81.8458 16.736 81.7658 17.0987 81.6058 17.424C81.4511 17.7493 81.2351 18.0267 80.9578 18.256C80.6805 18.4853 80.3498 18.6613 79.9658 18.784C79.5818 18.9067 79.1658 18.968 78.7178 18.968C78.5471 18.968 78.3791 18.96 78.2138 18.944C78.0538 18.9227 77.8965 18.896 77.7418 18.864C77.5871 18.9547 77.4725 19.0507 77.3978 19.152C77.3231 19.2533 77.2858 19.3573 77.2858 19.464C77.2858 19.64 77.3631 19.7707 77.5178 19.856C77.6725 19.9413 77.8751 20.0027 78.1258 20.04C78.3818 20.0773 78.6725 20.1013 78.9978 20.112C79.3231 20.1227 79.6538 20.1413 79.9898 20.168C80.3258 20.1947 80.6565 20.24 80.9818 20.304C81.3071 20.3627 81.5951 20.464 81.8458 20.608C82.1018 20.7467 82.3071 20.936 82.4618 21.176C82.6165 21.416 82.6938 21.728 82.6938 22.112C82.6938 22.464 82.6058 22.808 82.4298 23.144C82.2538 23.48 81.9978 23.7787 81.6618 24.04C81.3311 24.3013 80.9258 24.5093 80.4458 24.664C79.9658 24.824 79.4191 24.904 78.8058 24.904C78.1978 24.904 77.6671 24.8453 77.2138 24.728C76.7658 24.6107 76.3898 24.4507 76.0858 24.248C75.7871 24.0507 75.5631 23.8213 75.4138 23.56C75.2698 23.2987 75.1978 23.0267 75.1978 22.744C75.1978 22.36 75.3178 22.032 75.5578 21.76C75.8031 21.488 76.1338 21.2747 76.5498 21.12C76.3258 21.0133 76.1445 20.8667 76.0058 20.68C75.8725 20.4933 75.8058 20.248 75.8058 19.944C75.8058 19.704 75.8938 19.4533 76.0698 19.192C76.2458 18.9307 76.5098 18.7093 76.8618 18.528C76.4565 18.304 76.1365 18.008 75.9018 17.64C75.6671 17.2667 75.5498 16.832 75.5498 16.336C75.5498 15.9307 75.6271 15.5653 75.7818 15.24C75.9418 14.9147 76.1631 14.6373 76.4458 14.408C76.7285 14.1787 77.0618 14.0027 77.4458 13.88C77.8351 13.7573 78.2591 13.696 78.7178 13.696C79.4218 13.696 80.0351 13.8427 80.5578 14.136H82.8378Z" fill="white"/>
<path d="M18 16.5C17.337 16.5 16.7011 16.2366 16.2322 15.7678C15.7634 15.2989 15.5 14.663 15.5 14C15.5 13.337 15.7634 12.7011 16.2322 12.2322C16.7011 11.7634 17.337 11.5 18 11.5C18.663 11.5 19.2989 11.7634 19.7678 12.2322C20.2366 12.7011 20.5 13.337 20.5 14C20.5 14.3283 20.4353 14.6534 20.3097 14.9567C20.1841 15.26 19.9999 15.5356 19.7678 15.7678C19.5356 15.9999 19.26 16.1841 18.9567 16.3097C18.6534 16.4353 18.3283 16.5 18 16.5ZM18 7C16.1435 7 14.363 7.7375 13.0503 9.05025C11.7375 10.363 11 12.1435 11 14C11 19.25 18 27 18 27C18 27 25 19.25 25 14C25 12.1435 24.2625 10.363 22.9497 9.05025C21.637 7.7375 19.8565 7 18 7Z" fill="white"/>
</g>
<defs>
<clipPath id="clip0_7_20">
<rect width="92" height="34" fill="white"/>
</clipPath>
</defs>
</svg>
