<svg width="56" height="55" viewBox="0 0 56 55" fill="none" xmlns="http://www.w3.org/2000/svg">
<g clip-path="url(#clip0_20_7)">
<rect width="56" height="55" rx="27.5" fill="#E03D9A"/>
<path d="M28.3153 31.3757C30.7894 31.3757 32.7866 29.4354 32.7866 27.0318V18.3439C32.7866 15.9403 30.7894 14 28.3153 14C25.8411 14 23.8439 15.9403 23.8439 18.3439V27.0318C23.8439 29.4354 25.8411 31.3757 28.3153 31.3757ZM37.1238 27.0318C36.3935 27.0318 35.7824 27.5531 35.6632 28.2626C35.0521 31.6653 31.9967 34.2717 28.3153 34.2717C24.6338 34.2717 21.5784 31.6653 20.9673 28.2626C20.9148 27.922 20.7387 27.6108 20.4709 27.3852C20.2031 27.1595 19.8612 27.0342 19.5067 27.0318C18.5975 27.0318 17.8821 27.8137 18.0162 28.6825C18.5816 32.0454 20.8531 34.8442 23.9387 36.2257C25.5142 36.9312 26.8248 38.3373 26.8248 40.0636V40.0636C26.8248 40.86 27.4955 41.5116 28.3153 41.5116C29.135 41.5116 29.8057 40.86 29.8057 40.0636V40.0636C29.8057 38.3372 31.1156 36.9302 32.6915 36.2252C33.769 35.7431 34.7606 35.0828 35.6192 34.267C37.2032 32.7621 38.2523 30.8059 38.6143 28.6825C38.7633 27.8137 38.033 27.0318 37.1238 27.0318Z" fill="white"/>
</g>
<defs>
<clipPath id="clip0_20_7">
<rect width="56" height="55" fill="white"/>
</clipPath>
</defs>
</svg>
