<svg width="83" height="32" viewBox="0 0 83 32" fill="none" xmlns="http://www.w3.org/2000/svg">
<g clip-path="url(#clip0_40_7)">
<rect x="0.25" y="0.25" width="82.5" height="31.5" rx="15.75" fill="#E03D9A" stroke="#E03D9A" stroke-width="0.5"/>
<path d="M41.5614 15.352C41.9774 15.352 42.3427 15.2987 42.6574 15.192C42.9774 15.0853 43.2414 14.936 43.4494 14.744C43.6627 14.5467 43.8227 14.3093 43.9294 14.032C44.036 13.7547 44.0894 13.4453 44.0894 13.104C44.0894 12.768 44.036 12.4667 43.9294 12.2C43.828 11.9333 43.6734 11.7067 43.4654 11.52C43.2574 11.3333 42.9934 11.192 42.6734 11.096C42.3587 10.9947 41.988 10.944 41.5614 10.944H39.8494V15.352H41.5614ZM41.5614 9.48C42.3134 9.48 42.964 9.568 43.5134 9.744C44.068 9.92 44.524 10.168 44.8814 10.488C45.244 10.8027 45.5134 11.184 45.6894 11.632C45.8654 12.0747 45.9534 12.5653 45.9534 13.104C45.9534 13.6533 45.86 14.1573 45.6734 14.616C45.4867 15.0693 45.2094 15.4613 44.8414 15.792C44.4734 16.1173 44.0147 16.3733 43.4654 16.56C42.9214 16.7413 42.2867 16.832 41.5614 16.832H39.8494V21H37.9774V9.48H41.5614ZM49.1281 9.16V21H47.4081V9.16H49.1281ZM55.6111 17.432C54.9978 17.4533 54.4805 17.504 54.0591 17.584C53.6378 17.6587 53.2965 17.7573 53.0351 17.88C52.7738 17.9973 52.5845 18.1387 52.4671 18.304C52.3551 18.4693 52.2991 18.6507 52.2991 18.848C52.2991 19.04 52.3285 19.2053 52.3871 19.344C52.4511 19.4773 52.5365 19.5893 52.6431 19.68C52.7551 19.7653 52.8831 19.8293 53.0271 19.872C53.1765 19.9093 53.3391 19.928 53.5151 19.928C53.9631 19.928 54.3471 19.8453 54.6671 19.68C54.9925 19.5093 55.3071 19.264 55.6111 18.944V17.432ZM51.0511 13.976C51.9738 13.1173 53.0725 12.688 54.3471 12.688C54.8165 12.688 55.2325 12.7653 55.5951 12.92C55.9631 13.0693 56.2698 13.2827 56.5151 13.56C56.7658 13.8373 56.9551 14.168 57.0831 14.552C57.2165 14.9307 57.2831 15.352 57.2831 15.816V21H56.5151C56.3498 21 56.2245 20.976 56.1391 20.928C56.0538 20.8747 55.9818 20.7707 55.9231 20.616L55.7551 19.952C55.5471 20.1387 55.3418 20.3067 55.1391 20.456C54.9365 20.6 54.7258 20.7227 54.5071 20.824C54.2938 20.9253 54.0618 21 53.8111 21.048C53.5658 21.1013 53.2938 21.128 52.9951 21.128C52.6645 21.128 52.3551 21.0827 52.0671 20.992C51.7845 20.9013 51.5391 20.7653 51.3311 20.584C51.1231 20.3973 50.9578 20.168 50.8351 19.896C50.7178 19.624 50.6591 19.304 50.6591 18.936C50.6591 18.6213 50.7418 18.3147 50.9071 18.016C51.0778 17.7173 51.3551 17.4507 51.7391 17.216C52.1285 16.976 52.6378 16.7787 53.2671 16.624C53.9018 16.4693 54.6831 16.3813 55.6111 16.36V15.816C55.6111 15.2293 55.4858 14.792 55.2351 14.504C54.9845 14.216 54.6165 14.072 54.1311 14.072C53.8005 14.072 53.5231 14.1147 53.2991 14.2C53.0751 14.28 52.8805 14.368 52.7151 14.464C52.5498 14.56 52.4031 14.6507 52.2751 14.736C52.1471 14.816 52.0111 14.856 51.8671 14.856C51.7498 14.856 51.6485 14.8267 51.5631 14.768C51.4831 14.704 51.4165 14.6267 51.3631 14.536L51.0511 13.976ZM66.3193 12.84L61.8233 23.32C61.7646 23.4427 61.6926 23.5387 61.6073 23.608C61.5273 23.6773 61.4019 23.712 61.2313 23.712H59.9593L61.4633 20.448L58.1353 12.84H59.6313C59.7753 12.84 59.8846 12.8747 59.9593 12.944C60.0393 13.008 60.0979 13.0853 60.1353 13.176L62.0793 17.808C62.1273 17.9413 62.1699 18.0747 62.2073 18.208C62.2499 18.336 62.2899 18.4693 62.3273 18.608C62.3699 18.4693 62.4126 18.3333 62.4553 18.2C62.4979 18.0667 62.5459 17.9333 62.5993 17.8L64.4633 13.176C64.5006 13.08 64.5619 13 64.6473 12.936C64.7379 12.872 64.8366 12.84 64.9433 12.84H66.3193Z" fill="white"/>
<path d="M13.85 21.6754C13.15 20.8935 12.6042 20.0175 12.2125 19.0476C11.8208 18.0777 11.625 17.0514 11.625 15.9687C11.625 13.6078 12.4875 11.5777 14.2125 9.87845C15.9375 8.1792 18.075 7.2168 20.625 6.99123V8.79574C18.625 9.00627 16.9583 9.78823 15.625 11.1416C14.2917 12.495 13.625 14.104 13.625 15.9687C13.625 16.8108 13.7667 17.604 14.05 18.3484C14.3333 19.0927 14.7417 19.7732 15.275 20.3897L13.85 21.6754ZM21.625 24.9912C20.4083 24.9912 19.2583 24.8108 18.175 24.4499C17.0917 24.089 16.1167 23.5852 15.25 22.9386L16.65 21.6529C17.3333 22.1341 18.0958 22.51 18.9375 22.7807C19.7792 23.0514 20.675 23.1867 21.625 23.1867C22.575 23.1867 23.4708 23.0514 24.3125 22.7807C25.1542 22.51 25.9167 22.1341 26.6 21.6529L28 22.9386C27.1333 23.5852 26.1583 24.089 25.075 24.4499C23.9917 24.8108 22.8417 24.9912 21.625 24.9912ZM29.4 21.6754L27.975 20.3897C28.5083 19.7732 28.9167 19.0927 29.2 18.3484C29.4833 17.604 29.625 16.8108 29.625 15.9687C29.625 14.104 28.9583 12.495 27.625 11.1416C26.2917 9.78823 24.625 9.00627 22.625 8.79574V6.99123C25.175 7.2168 27.3125 8.1792 29.0375 9.87845C30.7625 11.5777 31.625 13.6078 31.625 15.9687C31.625 17.0514 31.4292 18.0777 31.0375 19.0476C30.6458 20.0175 30.1 20.8935 29.4 21.6754ZM19.125 20.0288V11.9085L26.125 15.9687L19.125 20.0288Z" fill="white"/>
</g>
<defs>
<clipPath id="clip0_40_7">
<rect width="83" height="32" fill="white"/>
</clipPath>
</defs>
</svg>
