<svg width="58" height="57" viewBox="0 0 58 57" fill="none" xmlns="http://www.w3.org/2000/svg">
<path d="M1 28.5C1 13.3122 13.3122 1 28.5 1H29.5C44.6878 1 57 13.3122 57 28.5V28.5C57 43.6878 44.6878 56 29.5 56H28.5C13.3122 56 1 43.6878 1 28.5V28.5Z" fill="#E03D9A"/>
<path d="M22.0781 25.4081L22.8937 26.8331C23.4131 27.7425 23.6719 28.1963 23.6719 28.695C23.6719 29.1938 23.4131 29.6475 22.8937 30.555L22.0781 31.9819C19.7569 36.045 18.5962 38.0756 19.5 39.0844C20.4056 40.0913 22.5506 39.1538 26.8369 37.2788L38.6044 32.13C41.97 30.6581 43.6537 29.9213 43.6537 28.695C43.6537 27.4688 41.97 26.7319 38.6044 25.26L26.8369 20.1113C22.5506 18.2363 20.4056 17.2988 19.5 18.3056C18.5962 19.3125 19.7569 21.3431 22.0781 25.4081Z" fill="white"/>
</svg>
