<svg width="84" height="34" viewBox="0 0 84 34" fill="none" xmlns="http://www.w3.org/2000/svg">
<g clip-path="url(#clip0_40_7)">
<rect x="0.25" y="1.25" width="82.5" height="31.5" rx="15.75" fill="#E03D9A" stroke="#E03D9A" stroke-width="0.5"/>
<path d="M41.9366 12.04H38.3446V22H36.4806V12.04H32.8806V10.48H41.9366V12.04ZM43.1564 15.352C43.4124 14.8347 43.7217 14.4293 44.0844 14.136C44.447 13.8373 44.8817 13.688 45.3884 13.688C45.5644 13.688 45.7297 13.7093 45.8844 13.752C46.039 13.7893 46.1777 13.848 46.3004 13.928L46.1804 15.224C46.159 15.3147 46.1244 15.3787 46.0764 15.416C46.0337 15.448 45.975 15.464 45.9004 15.464C45.8204 15.464 45.7057 15.4507 45.5564 15.424C45.407 15.392 45.2497 15.376 45.0844 15.376C44.8444 15.376 44.631 15.4107 44.4444 15.48C44.263 15.5493 44.0977 15.6507 43.9484 15.784C43.8044 15.9173 43.6764 16.08 43.5644 16.272C43.4524 16.464 43.3484 16.6827 43.2524 16.928V22H41.5324V13.84H42.5324C42.7137 13.84 42.839 13.8747 42.9084 13.944C42.9777 14.008 43.0257 14.1227 43.0524 14.288L43.1564 15.352ZM51.6736 18.432C51.0603 18.4533 50.543 18.504 50.1216 18.584C49.7003 18.6587 49.359 18.7573 49.0976 18.88C48.8363 18.9973 48.647 19.1387 48.5296 19.304C48.4176 19.4693 48.3616 19.6507 48.3616 19.848C48.3616 20.04 48.391 20.2053 48.4496 20.344C48.5136 20.4773 48.599 20.5893 48.7056 20.68C48.8176 20.7653 48.9456 20.8293 49.0896 20.872C49.239 20.9093 49.4016 20.928 49.5776 20.928C50.0256 20.928 50.4096 20.8453 50.7296 20.68C51.055 20.5093 51.3696 20.264 51.6736 19.944V18.432ZM47.1136 14.976C48.0363 14.1173 49.135 13.688 50.4096 13.688C50.879 13.688 51.295 13.7653 51.6576 13.92C52.0256 14.0693 52.3323 14.2827 52.5776 14.56C52.8283 14.8373 53.0176 15.168 53.1456 15.552C53.279 15.9307 53.3456 16.352 53.3456 16.816V22H52.5776C52.4123 22 52.287 21.976 52.2016 21.928C52.1163 21.8747 52.0443 21.7707 51.9856 21.616L51.8176 20.952C51.6096 21.1387 51.4043 21.3067 51.2016 21.456C50.999 21.6 50.7883 21.7227 50.5696 21.824C50.3563 21.9253 50.1243 22 49.8736 22.048C49.6283 22.1013 49.3563 22.128 49.0576 22.128C48.727 22.128 48.4176 22.0827 48.1296 21.992C47.847 21.9013 47.6016 21.7653 47.3936 21.584C47.1856 21.3973 47.0203 21.168 46.8976 20.896C46.7803 20.624 46.7216 20.304 46.7216 19.936C46.7216 19.6213 46.8043 19.3147 46.9696 19.016C47.1403 18.7173 47.4176 18.4507 47.8016 18.216C48.191 17.976 48.7003 17.7787 49.3296 17.624C49.9643 17.4693 50.7456 17.3813 51.6736 17.36V16.816C51.6736 16.2293 51.5483 15.792 51.2976 15.504C51.047 15.216 50.679 15.072 50.1936 15.072C49.863 15.072 49.5856 15.1147 49.3616 15.2C49.1376 15.28 48.943 15.368 48.7776 15.464C48.6123 15.56 48.4656 15.6507 48.3376 15.736C48.2096 15.816 48.0736 15.856 47.9296 15.856C47.8123 15.856 47.711 15.8267 47.6256 15.768C47.5456 15.704 47.479 15.6267 47.4256 15.536L47.1136 14.976ZM61.1285 15.44C61.0752 15.5093 61.0245 15.5627 60.9765 15.6C60.9285 15.6373 60.8592 15.656 60.7685 15.656C60.6778 15.656 60.5818 15.624 60.4805 15.56C60.3845 15.496 60.2672 15.4267 60.1285 15.352C59.9952 15.272 59.8325 15.2 59.6405 15.136C59.4485 15.072 59.2085 15.04 58.9205 15.04C58.5472 15.04 58.2192 15.1067 57.9365 15.24C57.6592 15.3733 57.4245 15.5653 57.2325 15.816C57.0458 16.0613 56.9045 16.3627 56.8085 16.72C56.7178 17.072 56.6725 17.4693 56.6725 17.912C56.6725 18.3707 56.7232 18.7787 56.8245 19.136C56.9258 19.4933 57.0698 19.7947 57.2565 20.04C57.4485 20.2853 57.6778 20.472 57.9445 20.6C58.2165 20.728 58.5205 20.792 58.8565 20.792C59.1872 20.792 59.4565 20.752 59.6645 20.672C59.8725 20.592 60.0458 20.504 60.1845 20.408C60.3232 20.312 60.4405 20.224 60.5365 20.144C60.6378 20.064 60.7445 20.024 60.8565 20.024C60.9952 20.024 61.1018 20.0773 61.1765 20.184L61.6645 20.816C61.4672 21.056 61.2485 21.2587 61.0085 21.424C60.7685 21.5893 60.5152 21.7253 60.2485 21.832C59.9818 21.9333 59.7045 22.0053 59.4165 22.048C59.1285 22.096 58.8378 22.12 58.5445 22.12C58.0378 22.12 57.5632 22.0267 57.1205 21.84C56.6832 21.648 56.2992 21.3733 55.9685 21.016C55.6432 20.6533 55.3845 20.2133 55.1925 19.696C55.0058 19.1733 54.9125 18.5787 54.9125 17.912C54.9125 17.3093 54.9978 16.752 55.1685 16.24C55.3392 15.7227 55.5872 15.2773 55.9125 14.904C56.2432 14.5307 56.6512 14.24 57.1365 14.032C57.6218 13.8187 58.1818 13.712 58.8165 13.712C59.4085 13.712 59.9285 13.808 60.3765 14C60.8298 14.192 61.2325 14.464 61.5845 14.816L61.1285 15.44ZM64.768 10.16V17.024H65.136C65.2533 17.024 65.3493 17.008 65.424 16.976C65.4987 16.944 65.576 16.8773 65.656 16.776L67.944 14.16C68.024 14.0533 68.112 13.9733 68.208 13.92C68.304 13.8667 68.4267 13.84 68.576 13.84H70.136L67.384 16.944C67.224 17.152 67.048 17.3173 66.856 17.44C66.9627 17.5147 67.056 17.6 67.136 17.696C67.216 17.7867 67.2933 17.8907 67.368 18.008L70.304 22H68.768C68.6293 22 68.5093 21.9787 68.408 21.936C68.312 21.888 68.2267 21.8027 68.152 21.68L65.792 18.48C65.712 18.3573 65.632 18.28 65.552 18.248C65.472 18.2107 65.352 18.192 65.192 18.192H64.768V22H63.048V10.16H64.768Z" fill="white"/>
<path d="M18 16.5C17.337 16.5 16.7011 16.2366 16.2322 15.7678C15.7634 15.2989 15.5 14.663 15.5 14C15.5 13.337 15.7634 12.7011 16.2322 12.2322C16.7011 11.7634 17.337 11.5 18 11.5C18.663 11.5 19.2989 11.7634 19.7678 12.2322C20.2366 12.7011 20.5 13.337 20.5 14C20.5 14.3283 20.4353 14.6534 20.3097 14.9567C20.1841 15.26 19.9999 15.5356 19.7678 15.7678C19.5356 15.9999 19.26 16.1841 18.9567 16.3097C18.6534 16.4353 18.3283 16.5 18 16.5ZM18 7C16.1435 7 14.363 7.7375 13.0503 9.05025C11.7375 10.363 11 12.1435 11 14C11 19.25 18 27 18 27C18 27 25 19.25 25 14C25 12.1435 24.2625 10.363 22.9497 9.05025C21.637 7.7375 19.8565 7 18 7Z" fill="white"/>
</g>
<defs>
<clipPath id="clip0_40_7">
<rect width="84" height="34" fill="white"/>
</clipPath>
</defs>
</svg>
