<svg width="15" height="15" viewBox="0 0 15 15" fill="none" xmlns="http://www.w3.org/2000/svg">
<g clip-path="url(#clip0_8_2)">
<path d="M12.4938 2.4778C11.8444 1.82183 11.0709 1.30173 10.2184 0.947832C9.36588 0.593937 8.45144 0.41333 7.5284 0.416546C3.6609 0.416546 0.508815 3.56863 0.508815 7.43613C0.508815 8.67571 0.834648 9.87988 1.44382 10.9424L0.452148 14.5832L4.1709 13.6057C5.19798 14.1653 6.35256 14.4628 7.5284 14.4628C11.3959 14.4628 14.548 11.3107 14.548 7.44321C14.548 5.56613 13.8184 3.80238 12.4938 2.4778ZM7.5284 13.2728C6.48006 13.2728 5.45298 12.9895 4.5534 12.4582L4.3409 12.3307L2.1309 12.9115L2.71882 10.7582L2.57715 10.5386C1.99472 9.60857 1.68546 8.53351 1.68465 7.43613C1.68465 4.2203 4.30548 1.59946 7.52131 1.59946C9.07965 1.59946 10.5459 2.20863 11.6438 3.31363C12.1874 3.85477 12.6183 4.49843 12.9113 5.20731C13.2043 5.91618 13.3538 6.67616 13.3509 7.44321C13.3651 10.659 10.7442 13.2728 7.5284 13.2728ZM10.7301 8.90946C10.553 8.82446 9.68881 8.39946 9.53298 8.33571C9.37006 8.27905 9.25673 8.25071 9.13632 8.42071C9.0159 8.5978 8.68298 8.99446 8.58381 9.1078C8.48465 9.22821 8.3784 9.24238 8.20131 9.1503C8.02423 9.0653 7.45756 8.87405 6.79173 8.27905C6.26756 7.81155 5.92048 7.2378 5.81423 7.06071C5.71506 6.88363 5.80006 6.79155 5.89215 6.69946C5.97006 6.62155 6.06923 6.49405 6.15423 6.39488C6.23923 6.29571 6.27465 6.2178 6.33132 6.10446C6.38798 5.98405 6.35965 5.88488 6.31715 5.79988C6.27465 5.71488 5.92048 4.85071 5.77881 4.49655C5.63715 4.15655 5.4884 4.19905 5.38215 4.19196H5.04215C4.92173 4.19196 4.73756 4.23446 4.57465 4.41155C4.41881 4.58863 3.96548 5.01363 3.96548 5.8778C3.96548 6.74196 4.5959 7.5778 4.6809 7.69113C4.7659 7.81155 5.92048 9.58238 7.67715 10.3403C8.09506 10.5245 8.4209 10.6307 8.6759 10.7086C9.09381 10.8432 9.47631 10.822 9.7809 10.7795C10.1209 10.7299 10.8221 10.3545 10.9638 9.94363C11.1126 9.5328 11.1126 9.18571 11.063 9.1078C11.0134 9.02988 10.9071 8.99446 10.7301 8.90946Z" fill="#717171"/>
</g>
<defs>
<clipPath id="clip0_8_2">
<rect width="15" height="15" fill="white"/>
</clipPath>
</defs>
</svg>
